<svg id="Layer_1_Image" data-name="Layer 1 Image" xmlns="http://www.w3.org/2000/svg" viewBox="0 0 1485.73 1716.1"><defs><style>.cls-1{fill:none;}</style></defs><title>leologo</title><path d="M4213.39,1293.94q0,175.2,0,350.4,0,11,.06,22.08a62.45,62.45,0,0,0,.15,6.71c1.34,11.81.64,23.66.86,35.49,0,1,0,1.92,0,2.88,0,7.54-3.77,12.84-10.44,15.86s-12.93,6.89-19.21,10.68c-3,1.79-6.52,2.63-9.46,4.46-2.68,1.66-4.68,4.43-7.36,6.1a100.51,100.51,0,0,1-12.71,6.68c-5,2.18-9.32,5.58-14.59,7.22-1.72.53-3.1,2.19-4.63,3.34a66.7,66.7,0,0,1-11.39,7c-7.8,3.7-15.42,7.79-23,11.87a31,31,0,0,0-5.33,4.06,42,42,0,0,1-8.86,5.65c-5.69,2.86-11.71,5.19-16.66,9.4a5.49,5.49,0,0,1-2.52,1.32c-4.36.7-7.43,3.55-10.73,6.06a41.64,41.64,0,0,1-9.75,6c-2.88,1.15-5.37,3.41-7.87,5.38a43.65,43.65,0,0,1-7.28,4.53q-11.91,6.13-24,12a27,27,0,0,0-6.06,4.66c-4.79,4.39-10.52,7.2-16.35,9.78a33.27,33.27,0,0,0-6.8,3.47,10.25,10.25,0,0,1-3.34,1.84c-4.82,1.23-8.59,4.19-12.3,7.24-4.74,3.89-10.25,6.54-15.66,9.18-4.89,2.38-9.42,5.43-14.47,7.48a25.1,25.1,0,0,0-2.43,1.52c-4.49,2.44-7.85,6.56-12.83,8.31-4.83,1.7-8.69,5.44-13.73,6.74-4.43,3.16-9.8,4.71-14,8.3-5.89,5-12.81,8.37-19.74,11.63a36.7,36.7,0,0,0-7.48,4.22,11.16,11.16,0,0,1-4.11,2.39c-4,.9-6.85,3.29-9.72,5.89a17.55,17.55,0,0,1-3.91,2.74c-3.74,1.83-7.54,3.52-10.89,6a25.67,25.67,0,0,0-13.35,8.74c-1,1.15-2.66,1.7-4.07,2.44-2.54,1.33-5.06,2.74-7.7,3.84-6.2,2.58-11.57,6.76-17.88,9.17a19.79,19.79,0,0,0-5.54,3.69,39.88,39.88,0,0,1-11.32,7c-4.69,1.88-8.92,4.92-13.33,7.48-1.38.8-2.63,2.08-4.1,2.42-4.57,1-7.82,4.06-11.49,6.63-4.95,3.47-10.34,6.32-15.58,9.37-4.13,2.41-8.66,4.29-12.4,7.2-4.1,3.19-9,4.89-13.11,7.91a15.5,15.5,0,0,1-3.5,1.54,12.68,12.68,0,0,0-2.69,1c-6,4.31-13.08,6.72-18.8,11.43-1.23,1-2.39,2.41-3.82,2.84-4.68,1.4-8.33,4.82-12.84,6.36-3.74,1.27-6.74,3.47-9.91,5.64a151.65,151.65,0,0,1-17.13,10.53c-4.83,2.45-9.19,5.83-14.53,7.34-1.76.5-3.16,2.14-4.85,3-2.83,1.45-6,2.38-8.58,4.11s-4.53,4.69-7.25,6.2c-4.18,2.31-8.19,5-12.55,6.91-3.24,1.42-6.17,3.24-9.24,4.91-6.16,3.36-12.5,6.34-17.77,11.09-6.1,2-10.76,6.84-17,8.81-2.31.74-4.3,2.71-6.25,4.34a42,42,0,0,1-6.42,4.13c-5.84,3.29-12.12,5.75-17.67,9.58a10.31,10.31,0,0,1-4.37,1.85c-4.17.51-7.06,2.71-9.34,6a9.53,9.53,0,0,1-5.38,3.81,22.62,22.62,0,0,0-7.48,4.18,13.31,13.31,0,0,1-5,2.65c-4,.81-6,3.28-7.19,6.88a6,6,0,0,1-1.13,1.52,2.36,2.36,0,0,1-3.38-.27,22.7,22.7,0,0,1-1.64-3.41,8.35,8.35,0,0,0-5.09-5.36,21.28,21.28,0,0,1-5-2.77,9.28,9.28,0,0,0-6.13-2.28,5.59,5.59,0,0,1-4.36-1.67,11.6,11.6,0,0,0-6.56-3.68,7.35,7.35,0,0,1-4.67-3.12c-2.52-3.48-6.08-5.7-9.8-7.54a38.76,38.76,0,0,1-7.46-4.24,6,6,0,0,0-3.51-1.25,8.61,8.61,0,0,1-7.35-3.65c-2-2.45-4.68-4.32-7.12-6.37a6.11,6.11,0,0,0-2.49-1.39c-6.12-1.25-10.9-5.23-16.27-8-2.31-1.17-4.44-2.44-7.07-2.66a7.22,7.22,0,0,1-4.95-2.63c-1.25-1.45-2.56-2.86-3.89-4.24-2.25-2.34-4.72-4.23-8.08-4.84a10.38,10.38,0,0,1-4.28-2,21.63,21.63,0,0,0-7.62-3.9c-2.56-.68-4.41-2.53-6.25-4.31-2.55-2.48-5.22-4.71-8.83-5.52a5.38,5.38,0,0,1-2.59-1.19c-4.75-4.76-11.08-6.19-17.14-8.1-2.84-.89-5.29-2-7.08-4.53-2.29-3.2-5.72-5.22-9-7s-6.79-3.46-9.84-5.85c-.95-.75-2.39-.83-3.55-1.36-1.73-.78-3.44-1.62-5.1-2.54-1.39-.77-2.62-2.19-4.07-2.43-4.38-.72-7.54-3.44-10.74-6-4.52-3.67-10.09-5.51-14.77-8.87-1-.7-2.47-.62-3.64-1.09a13.68,13.68,0,0,1-4.22-2.1,11,11,0,0,0-6.83-3.08,6.56,6.56,0,0,1-4.19-2.12c-.9-.91-1.69-1.94-2.64-2.78-1.69-1.48-3.27-3.22-5.22-4.2-7.41-3.72-14.53-8-21.92-11.72-2.22-1.12-5-1.15-7.18-2.37-1.85-1.06-3-3.28-4.74-4.65a29.82,29.82,0,0,0-6.46-4.11c-5.28-2.32-9.44-6.6-15-8.33-1.15-.36-2-1.57-3.1-2.21s-2.33-1.52-3.44-1.44c-3.66.27-5.79-1.6-8-4.19a24.66,24.66,0,0,0-10.12-7.06,40.65,40.65,0,0,1-5.06-2.65c-1.12-.6-2.19-1.7-3.34-1.78-4.56-.31-7.38-3.31-10.54-6-3.36-2.9-6.64-6-11.35-6.87-1.49-.27-2.84-1.39-4.22-2.19s-2.6-2-4.07-2.48a30.81,30.81,0,0,1-11.28-7.08,12.06,12.06,0,0,0-4.06-2.45,22,22,0,0,1-6.62-3.79,9.31,9.31,0,0,0-3.22-2c-4.13-1-7.36-3.75-11.06-5.53a48.61,48.61,0,0,1-10.39-6.74c-.72-.62-1.6-1.06-2.33-1.68-2.56-2.17-6-2.06-8.82-3.61s-5.28-3.52-7.9-5.31c-4.34-.52-7.36-3.74-11.11-5.43a46.52,46.52,0,0,1-10.34-6.9c-2.87-2.36-5.84-3.78-9.62-3.48-2.77.22-4.74-1.17-6.54-3.28a28.78,28.78,0,0,0-12.44-8.64,23.3,23.3,0,0,1-6.58-3.83,38,38,0,0,0-9.84-5.9,9.64,9.64,0,0,1-3.38-1.76c-3.3-3.18-7.51-4.8-11.4-7-.83-.47-1.63-1-2.5-1.41-2.32-1.06-5.17-.56-7.23-2.33-1.69-1.46-3.1-3.26-4.87-4.59-2.79-2.11-5.37-4.56-8.88-5.61a8.57,8.57,0,0,1-3.31-1.87c-4.34-4.17-9.83-5.93-15.43-7.29a14.69,14.69,0,0,1-8-4.77,31.13,31.13,0,0,0-12.43-8.69c-3.82-1.48-7.17-4.09-11.38-4.82a9.68,9.68,0,0,1-3.29-1.9c-6.06-4.15-11.87-8.74-18.22-12.38-4.63-2.65-9.28-5.65-14.79-6.48a8.48,8.48,0,0,1-5.53-3.49c-.78-1-1.64-2-2.48-2.94-2.34-2.72-5-4.89-8.73-5.48a9.89,9.89,0,0,1-4.32-1.91,23.31,23.31,0,0,0-7.59-4,12.49,12.49,0,0,1-4.11-2.37,48,48,0,0,0-12.18-7.55,25.1,25.1,0,0,1-4-2.59c-1.07-.69-2.08-1.74-3.25-2-5.12-1-9-4.86-14-6a4,4,0,0,1-1.74-.77,47.35,47.35,0,0,0-10.35-6.71c-3.41-1.64-6.32-4.32-9.45-6.53-1.3-.92-2.51-2.23-4-2.63-5-1.4-8.91-5-13.65-6.93-2.29-1-4.18-2.88-6.25-4.36a8.05,8.05,0,0,1-3.59-6.46,7.1,7.1,0,0,0-.43-2.83,11.61,11.61,0,0,1-.38-11c.76-1.63.59-3.76.65-5.67.1-3.19.06-6.4.06-9.6q0-142.06.08-284.14.09-217.44.2-434.88,0-44.16.07-88.32c0-.64,0-1.28,0-1.92,0-12.19.91-10.41,7.18-17.84a6.09,6.09,0,0,1,3.14-2c6.41-1.3,11.79-4.7,17.24-8a13.08,13.08,0,0,1,3.36-1.81c5.25-1.27,9.11-4.6,12.6-8.38,2.26-2.46,4.56-4.3,8.07-4.56,1.48-.11,2.9-1.19,4.3-1.91,1.13-.58,2.13-1.67,3.31-1.88,5.44-.95,9.11-4.47,12.48-8.37,1.75-2,3.6-3.58,6.37-3.81,1.95-.16,3.57-1.21,5.32-2,5.83-2.58,10.93-6.47,16.9-8.87a29.75,29.75,0,0,0,10.67-8,6.43,6.43,0,0,1,4-2.41,13.7,13.7,0,0,0,7.85-3.2c5.76-2,10.41-6.2,16.17-8.22,3.11-1.09,5.43-3.42,7.62-5.71,2.71-2.83,5.35-5.54,9.55-5.81,5-2.88,10.88-3.78,15.33-7.66a4.33,4.33,0,0,1,1.64-1c5.17-1.34,8.86-5,12.79-8.22a24.32,24.32,0,0,1,6.56-3.86c2.64-1.06,4.92-3.22,7.61-3.93,6.26-1.62,10.72-5.51,14.63-10.26a6.47,6.47,0,0,1,5.89-2.49,5.1,5.1,0,0,0,4.9-2.41,7.29,7.29,0,0,1,5.48-3.41,11,11,0,0,0,4.53-1.31,45.22,45.22,0,0,1,7.75-3.72,12.74,12.74,0,0,0,4-2.57c2.69-2.56,6.63-2.42,9.42-4.57s5.34-4.57,8-6.87c5.63-1.46,9.61-6.34,15.43-7.43a9.75,9.75,0,0,0,4.85-3c1.62-1.55,3.32-3,4.78-4.72a10.11,10.11,0,0,1,7.49-3.71,6.48,6.48,0,0,0,3.55-1.22c2.78-2.29,6.22-3.24,9.24-5s5.91-3.72,9.37-4.72a11,11,0,0,0,4-2.5,85.36,85.36,0,0,0,6-6.13,6.09,6.09,0,0,1,5-2.36,8.08,8.08,0,0,0,5.37-1.66,13.18,13.18,0,0,1,4.06-2.48c5.24-1.35,9.06-4.66,12.36-8.64a9.19,9.19,0,0,1,6.52-3.55,7.16,7.16,0,0,0,1.86-.47c2.71-1,4-4.29,7.12-4.65a14.37,14.37,0,0,0,7.84-3.27,10.86,10.86,0,0,1,3.36-1.79,25.58,25.58,0,0,0,11.54-8.29c1.75-2.17,3.61-3.51,6.47-3.32A5.59,5.59,0,0,0,3137,633a7.55,7.55,0,0,1,5.82-2.87,7.84,7.84,0,0,0,5-2.53c1.36-1.35,2.91-2.52,4.16-4,2.15-2.48,4.44-4.49,7.92-4.86,3.13-.32,4.37-3.62,7-4.82,2.29-1.06,5.24-.46,7.06-2.63a8.28,8.28,0,0,1,7.54-3.31,5.39,5.39,0,0,0,3.5-1.23,24.43,24.43,0,0,1,7.44-4.24c3.4-1.2,5.89-3.85,8.22-6.47s4.56-4.39,8.05-4.54a5.85,5.85,0,0,0,4.15-2.16,9.58,9.58,0,0,1,6.73-3.24,7.88,7.88,0,0,0,4.93-2.72c1.32-1.39,2.72-2.71,4-4.12,2-2.17,4.18-3.94,7.25-4.3a6.3,6.3,0,0,0,4.17-2.17,7.79,7.79,0,0,1,6.65-3.15,4.13,4.13,0,0,0,2.73-.67c4.29-4.06,10.81-4,15-8.21a4.94,4.94,0,0,1,2.61-1.12c3.68-.6,6.44-2.73,8.94-5.26a26.48,26.48,0,0,1,10.3-6.66c4.14-1.44,8.07-3.78,11.95-6a25.06,25.06,0,0,0,8.5-7.65,4.94,4.94,0,0,1,3.91-2.48,10.68,10.68,0,0,0,6.95-2.78,11.32,11.32,0,0,1,4.2-2.18,20.06,20.06,0,0,0,6-2.81,11.55,11.55,0,0,1,4.23-2.15c4.41-.79,7.39-3.63,10.34-6.58.9-.91,1.74-1.88,2.58-2.85a6.18,6.18,0,0,1,4-2.37,15.14,15.14,0,0,0,7.94-3.06,10,10,0,0,1,3.48-1.53,15,15,0,0,0,6-3,10.25,10.25,0,0,1,3.17-2.12c5.46-1.6,9.4-5.34,13.24-9.19a8.81,8.81,0,0,1,5.87-2.83,6.22,6.22,0,0,0,1.87-.38,10,10,0,0,0,2.53-1.31c4.95-4,11.88-5,15.78-10.54a10.32,10.32,0,0,1,7.86-4.88,8.36,8.36,0,0,0,3.55-1.33,26.83,26.83,0,0,1,7-3.13,19.91,19.91,0,0,0,4.24-2.15c1.39-.78,2.64-2.06,4.11-2.38,5.4-1.16,8.94-4.82,12.3-8.71a9.66,9.66,0,0,1,6.51-3.6c1.22-.14,2.8-.48,3.49-1.32,2.46-3,5.66-3.84,9.27-4.14.76-.07,1.64-1,2.12-1.76.85-1.34,1.42-2.85,2.15-4.27a1.37,1.37,0,0,1,2.34-.15c.51.81.92,1.68,1.4,2.51a5.89,5.89,0,0,0,3.47,3.14c5.69,1.41,10.06,5.54,15.55,7.4,1.74.59,3.23,2,4.74,3.2a100.74,100.74,0,0,0,22.22,13.1,131.44,131.44,0,0,1,12,6,35,35,0,0,1,5.29,4.09,28.21,28.21,0,0,0,8.86,5.59c4.51,1.6,8.16,4.94,12.8,6.48,2,.66,3.61,2.57,5.4,3.91,2.05,1.54,3.88,3.72,6.18,4.47,5,1.64,8.94,4.92,13.58,7,7.59,3.43,15.1,6.95,21.11,13a9.65,9.65,0,0,0,4.06,2.44c6.27,1.72,11.29,6,17.21,8.37a50.87,50.87,0,0,1,7.58,4.09,35.86,35.86,0,0,1,5.34,4,29.9,29.9,0,0,0,8.86,5.63,125.54,125.54,0,0,1,17.91,9.1,19.2,19.2,0,0,0,5.37,1.86,9,9,0,0,1,4.86,2.87c1,1.22,2.12,2.4,3.22,3.55a19.11,19.11,0,0,0,6.32,4.28,32.2,32.2,0,0,1,6,2.93,33.53,33.53,0,0,0,7.52,4.17,27.05,27.05,0,0,1,5.06,2.7c16.75,10.88,17.12,11.09,34,19.47,2.28,1.13,4.76,2.17,6.59,3.86,5.73,5.33,12.82,8.17,19.61,11.67,7,3.63,14.68,6.38,20.49,12.14a13.77,13.77,0,0,0,6.59,3.76,7.73,7.73,0,0,1,2.66,1.06c6.3,4.42,13.51,7.14,20.19,10.86a26.68,26.68,0,0,1,5.36,4c3.29,3.15,6.77,5.87,11.39,6.73,6.53,3.3,13.44,6,18.65,11.47a20.88,20.88,0,0,0,6.26,4.33q11.68,5.58,23.2,11.48a38,38,0,0,1,7.29,4.57c5.2,4.42,11.38,7.12,17.33,10.14,3.45,1.75,6.88,3.41,9.75,6,5.34,4.75,11.84,7.53,18,10.76,7.91,4.14,16.1,7.73,24,11.8a43.63,43.63,0,0,1,6.93,5.12,51.77,51.77,0,0,0,9.57,6.27c4.27,2.12,8.33,4.59,12.84,6.32,2.61,1,4.91,3,7.11,4.83a31.45,31.45,0,0,0,8,5.22c2,.84,3.59,2.82,5.62,3.57,4.82,1.79,9.07,4.76,13.82,6.5a24,24,0,0,1,9.54,6.14,18.82,18.82,0,0,0,7.05,4.87,16.08,16.08,0,0,1,3.42,1.71c5.84,4.07,12.44,6.37,19.17,8.37a8.14,8.14,0,0,1,4.7,3.1c2.26,3.27,5.41,5.4,8.81,7.24,8.43,4.56,16.84,9.17,25.62,13a20.13,20.13,0,0,1,6.23,4.38,21.58,21.58,0,0,0,8.81,5.62,23.15,23.15,0,0,1,6.74,3.59,13.4,13.4,0,0,0,4.19,2.25,21.09,21.09,0,0,1,8.95,5.36,38.69,38.69,0,0,0,8.69,5.84c7.64,4,15.24,8.08,23.14,11.58a18.92,18.92,0,0,1,5.36,4c3.23,3.19,6.53,6.13,11.16,7.07,5.11,3.89,11.87,4.75,16.76,9.11a11.25,11.25,0,0,0,3.48,1.56c3.75,1.46,6.25,4.37,8.61,7.42a9.28,9.28,0,0,1,1.78,5.39q.19,4.31.2,8.63,0,39.36,0,78.72v333.12Zm-1277,73.71h.19c0,2.88-.08,5.76,0,8.64.33,9.91.72,19.82,1.11,29.73a15.61,15.61,0,0,0,.39,3.81c1.47,5,1.16,10.14,1.15,15.25a74.49,74.49,0,0,0,4.12,25.4,13.45,13.45,0,0,1,.86,4.67,30.41,30.41,0,0,0,2.92,14,15.24,15.24,0,0,1,1.49,7.45,38.38,38.38,0,0,0,4.19,18.52,57.48,57.48,0,0,1,2.56,7.2c.79,2.43,1.3,5,2.28,7.32a76.65,76.65,0,0,1,4.76,16.56,14.78,14.78,0,0,0,3,6.95,39.5,39.5,0,0,1,6.43,11.71c.76,2.09,2,4,3,6a41.67,41.67,0,0,1,2.76,6.11c1,3.44,2.87,6.33,4.69,9.35,3.47,5.74,6.39,11.8,10.88,16.88a11.76,11.76,0,0,1,.9,1.69c1.68,2.71,3.3,5.46,5.12,8.09,2.9,4.2,6,8.25,8.87,12.48,2.33,3.45,4.44,7,7.66,9.78a31.72,31.72,0,0,1,6.47,8.24c3.1,5.18,6.15,10.49,11.23,14.19a14,14,0,0,1,3.07,3.63,18.37,18.37,0,0,0,5.25,5.53,18,18,0,0,1,7.13,8.79,8.09,8.09,0,0,0,5.41,5c3.32,1,5.2,3.51,6.27,6.74.5,1.49.85,3.24,1.85,4.33,3.85,4.2,7.44,8.84,13.19,10.65a13.58,13.58,0,0,1,5.51,3.61q14,13.77,28.24,27.38c.9.87,2,2,3.1,2.11,3.89.43,6.16,3,8.61,5.57a57.54,57.54,0,0,0,20.4,14,13.32,13.32,0,0,1,2.57,1.26c3.45,2.3,6.84,4.68,10.29,7,2.65,1.78,5.35,3.48,8,5.24,2.39,1.59,5,2.94,7.08,4.88,2.55,2.39,5.9,2.32,8.74,3.67,1.15.54,2.15,1.37,3.26,2,1.65.94,3.34,1.82,5,2.71a32.74,32.74,0,0,1,5,2.74,22.64,22.64,0,0,0,7.75,3.63c9.17,2.8,18.36,5.61,26.94,10a23.79,23.79,0,0,0,11.89,3.1,14.68,14.68,0,0,1,5.51,1.41,24.11,24.11,0,0,0,8.39,1.82c3.36.07,5.82,2.6,9,3.19a7.87,7.87,0,0,0,1,.12c8.28.61,16.44,2.66,24.83,2.12a19.41,19.41,0,0,1,9.39,1.47,15.41,15.41,0,0,0,6.58,1.05c5.12,0,10.24-.16,15.35-.18,5.44,0,10.88-.09,16.3.11,4.79.18,9.57.71,14.35,1.05a13.94,13.94,0,0,0,3.82,0c6-1.33,12.06-1.38,18.14-1.51a8.67,8.67,0,0,0,2.84-.38c5.83-2.21,11.94-2,18-2.32,2.23-.11,4.45-.48,6.68-.69a10.18,10.18,0,0,0,6.73-3.33c5.18-5.63,11.84-9.77,16.26-16.16a12.6,12.6,0,0,0,5.33-8.75,5,5,0,0,1,1.26-2.53c3-3.25,3.83-7.29,4.48-11.44a13.39,13.39,0,0,1,2.77-7c2.24-2.57,2.82-5.62,3.09-8.88.16-1.88.33-4.07,1.36-5.49,2.42-3.33,2.61-7,3.16-10.85,1.14-8,1.08-16,1-24a48.29,48.29,0,0,0-1.37-13.32,16,16,0,0,1-.47-5.68c.31-3.34-.06-6.29-2.35-9a10.49,10.49,0,0,1-2-4.29,17.19,17.19,0,0,0-3.11-5.85c-3.39-4.74-8.06-8.2-11.94-12.44-4.08-4.46-8.34-8.77-14.57-10.53-2.35-.66-4.16-3.15-6.51-3.92-4.3-1.41-8.05-3.71-12-5.77-3.66-1.91-7.28-4-11.1-5.57a72.71,72.71,0,0,1-9.58-4.31c-3.29-1.91-7.05-2.95-9.91-5.71a7.6,7.6,0,0,0-3.46-1.5,21.19,21.19,0,0,1-6.12-2.68c-3.82-2.33-7.92-4.1-11.81-6.32s-8.12-3.65-12-6a5.57,5.57,0,0,0-1.8-.62,19,19,0,0,1-6.9-3.22,20.32,20.32,0,0,0-5.17-2.41,16.63,16.63,0,0,1-6-2.94,15.25,15.25,0,0,0-5.84-3.2,8.16,8.16,0,0,1-3.36-1.76c-4.15-3.92-9.84-6.08-12.88-11.29a7,7,0,0,0-2.07-2c-4.27-3-6.95-7.49-10.46-11.19a15.93,15.93,0,0,1-2.39-4.11c-.68-1.44-.91-3.16-1.81-4.41-2.58-3.6-3.13-7.66-3.12-11.86,0-4.79.09-9.59.36-14.37a9.33,9.33,0,0,1,1.39-4.51c2.18-3.23,3.41-6.86,5-10.34,2.8-6.15,6.32-11.81,11.44-16.39a64.76,64.76,0,0,0,5.07-5.74c1.92-2.18,4-4.38,6.93-4.88,3.36-.57,5.79-2.45,8.3-4.44a4.86,4.86,0,0,1,6.2.33,7.16,7.16,0,0,1,1.75,2.21c.83,1.72,1.11,3.81,2.26,5.24,2.38,3,4.68,6.07,7.8,8.4a40.81,40.81,0,0,1,5.1,4.35c4.43,4.6,8.76,9.31,13.09,14,1.12,1.21,2.37,2.41,4,2.43,3.53.06,5.94,2,8.29,4.25,1.4,1.32,2.86,2.57,4.26,3.88a9.24,9.24,0,0,0,5,2.73,10.49,10.49,0,0,1,5.94,2.86,8.22,8.22,0,0,0,6,2.47,15.42,15.42,0,0,1,9.84,3.27,13.82,13.82,0,0,0,8.83,3.17,15.77,15.77,0,0,1,9,2.9,8.5,8.5,0,0,0,3.55,1.32c5.69.76,11.41,1.34,17.11,2.08a11.48,11.48,0,0,1,4.57,1.18c3.45,2.17,7.17,2.53,11.06,2.49a23.77,23.77,0,0,1,4.78.31c6,1.18,12.09,1.21,18.17,1.28,8,.1,16,.23,24,.12,7-.11,14.06-.5,21.08-.83,3.19-.16,6.37-.55,9.56-.68a9.42,9.42,0,0,0,5.45-1.51c2.69-2,5.74-2.58,9-2.7,3.83-.15,7.65-.63,11.48-.86,2.61-.16,5.09-.62,7.17-2.31a12.93,12.93,0,0,1,8-2.68,14.78,14.78,0,0,0,8.94-3,15.51,15.51,0,0,1,8.91-3.2,12,12,0,0,0,7.72-3.35c3.59-3.15,7.1-6.48,12.08-7.48a5.34,5.34,0,0,0,2.37-1.57,12,12,0,0,1,6.75-3.34,7.42,7.42,0,0,0,3.51-1.38,81.49,81.49,0,0,0,9.2-8.39c3.38-3.87,7.13-7.33,10.78-10.91,4.35-4.25,8.63-8.56,10.56-14.59a6,6,0,0,1,1.08-1.57,4.77,4.77,0,0,1,6.08-.8c2,1.56,3.46,3.86,6.25,4.2,3.77.47,6.34,2.88,8.77,5.45,2,2.08,3.67,4.45,5.76,6.4a8.79,8.79,0,0,1,3,5.78,6.18,6.18,0,0,0,3,4.72c3.47,2.13,5.42,5.32,6.84,9a21.74,21.74,0,0,0,2.5,5.15,14.56,14.56,0,0,1,2.75,9c0,3.52.09,7,.06,10.56,0,3.88-.52,7.59-3,10.87-1.13,1.47-1.51,3.49-2.32,5.22a18.69,18.69,0,0,1-2.24,4.19,78.77,78.77,0,0,1-7.75,8.46,56.49,56.49,0,0,0-7.29,7.54c-3.16,4.06-7.41,7.11-11.69,9.82s-9.14,4.52-13.71,6.78a33.53,33.53,0,0,0-5.81,3.24c-2.16,1.66-4.76,1.77-7.08,2.72a83.31,83.31,0,0,0-7.5,4.13,5.66,5.66,0,0,1-1.87.37,11.11,11.11,0,0,0-5.14,2.39c-4.87,3.64-9.87,7-15.86,8.69a22.18,22.18,0,0,0-4.25,2.12c-4.79,2.54-9.42,5.43-14.39,7.52-3.83,1.6-7.59,3.26-11.31,5.1s-7.35,3.78-11,5.79-7.47,3.54-10.84,6a6.92,6.92,0,0,1-2.63,1.12c-3.3.72-5.7,2.9-8.06,5-4.28,3.85-8.58,7.7-12.49,11.92-3.46,3.75-6.55,7.92-7.55,13.15a28.61,28.61,0,0,1-3.78,9.76,14.41,14.41,0,0,0-1.47,5.47,147.31,147.31,0,0,0,.65,42.09,11.36,11.36,0,0,0,1.38,4.52,24.44,24.44,0,0,1,3.62,9.81c.71,4.83,2.94,9.16,5.09,13.41,3.75,7.39,7.78,14.63,11.48,22.06a36.48,36.48,0,0,0,12.19,14.5,15.69,15.69,0,0,0,4.16,2.24,20.59,20.59,0,0,1,6.79,3.46,14.25,14.25,0,0,0,8.11,2.57c1.6.06,3.2.1,4.8.06a14.58,14.58,0,0,1,8.3,1.79,8.72,8.72,0,0,0,5.55,1.2c9.93-1.11,19.81-.18,29.68.81a81.68,81.68,0,0,0,15.32-.06c9.55-.83,19.11-1.92,28.72-.68a10.29,10.29,0,0,0,6.53-1.07,16.68,16.68,0,0,1,9.26-1.88,55.51,55.51,0,0,0,13.35-1.15c4.65-1,9.64-.48,13.77-3.58.69-.52,1.84-.46,2.78-.62,3.78-.63,7.57-1.18,11.33-1.91a12.27,12.27,0,0,0,4.46-1.55,16.71,16.71,0,0,1,9-2.83,15,15,0,0,0,8.91-3.07,9.74,9.74,0,0,1,4.26-2.07,39.52,39.52,0,0,0,15.25-5.28,5.4,5.4,0,0,1,1.85-.51,12,12,0,0,0,6-2.9,11.8,11.8,0,0,1,6-2.81,12.89,12.89,0,0,0,5.14-2.46,18.75,18.75,0,0,1,4.93-2.82,14,14,0,0,0,7-4.73,19,19,0,0,1,9.43-6.28,24.8,24.8,0,0,0,5.91-3.11,13.3,13.3,0,0,1,5.23-2.24,8,8,0,0,0,5.59-3.37,21.29,21.29,0,0,1,10.81-7.6,15.91,15.91,0,0,0,6.25-4.21c2.93-2.95,6-5.75,9.07-8.56a12.65,12.65,0,0,1,6.65-3.59c2-.3,3.43-1.56,4.85-2.91,4.85-4.63,9.36-9.58,14.31-14.14,10.12-9.29,19.95-18.92,29.21-29.08a10.73,10.73,0,0,1,6.45-3.74,5.26,5.26,0,0,0,4.65-4.26,11.75,11.75,0,0,1,3.81-6.45c3.94-3.73,7.76-7.62,11.51-11.54q8-8.32,15.71-16.82a6.49,6.49,0,0,0,1.61-3.39c.36-3.13,2.14-5.28,4.27-7.28,1.41-1.31,2.89-2.54,4.29-3.85a8.31,8.31,0,0,0,2.93-4.84c.47-3.38,2.33-5.85,4.68-8.13s4.87-4.41,5.93-7.46c1.61-4.67,4.64-8.35,7.46-12.22.75-1,1.83-1.93,2.27-3.08,2.18-5.67,6.48-10.28,8.13-16.23a10.18,10.18,0,0,1,1.71-3.4,29,29,0,0,0,4.14-8.59c1.55-4.55,3.42-9,6.67-12.63a10.25,10.25,0,0,0,2.82-6.91c.08-3.23.46-6.48,2.48-9.13a19.07,19.07,0,0,0,3.64-10.73,10.69,10.69,0,0,1,2.26-6.21c2.36-2.88,3.05-6.28,3.31-9.84.16-2.23.38-4.46.42-6.7a7.35,7.35,0,0,1,1.86-5.28c2.38-2.47,3-5.54,3.16-8.81.11-2.56.17-5.13.5-7.66.19-1.55.45-3.35,1.36-4.48,2.62-3.26,3.06-6.87,2.9-10.83a77.87,77.87,0,0,1,.53-8.61c.32-4.46.72-8.92.93-13.39.1-2.29.3-4.49,1.78-6.33,1.92-2.4,2.28-5.21,2.29-8.14,0-6.08-.17-12.17.16-18.24,1.19-22.08-.41-44.14-.17-66.22a11.37,11.37,0,0,0-2.07-7.23,10.94,10.94,0,0,1-2-6.27c-.39-8.62-.92-17.24-1.39-25.86a9.35,9.35,0,0,0-1.69-5.41c-1.84-2.39-2.35-5.11-2.66-8a128.35,128.35,0,0,1-.79-16.28c.08-3.6-.48-7-2.87-9.9a6.78,6.78,0,0,1-1.5-3.45c-.57-7-1.2-14-1.33-21-.06-3-.34-5.68-2.36-8a9.38,9.38,0,0,1-2.09-6.21c-.24-9.91-.6-19.82-.89-29.73-.06-2.26-.06-4.57-1.46-6.44-2.25-3-2.71-6.38-2.61-10a55.67,55.67,0,0,0-.44-5.73c-.29-3.82-.63-7.64-.81-11.46-.13-2.88-.06-5.76-.07-8.64s-.34-5.73-2.31-8.13a10.28,10.28,0,0,1-2.15-6.22c-.53-10.22-1.65-20.42-1.21-30.67.11-2.62-.08-5.17-1.84-7.26-2-2.39-2.27-5.18-2.26-8.11q.09-13.92.1-27.84,0-11,0-22.08a8.38,8.38,0,0,1,1.43-5.46c2.34-2.95,2.76-6.31,2.69-9.94-.1-4.79,0-9.59.23-14.38a14.33,14.33,0,0,1,3.12-8.9,10.17,10.17,0,0,0,2.16-7.17c-.06-2.56,0-5.11,0-7.67a10.43,10.43,0,0,1,2.39-7.12c2.28-2.52,3-5.55,3.23-8.82a12,12,0,0,1,3-7.87c1.85-2,2.38-4.46,2.45-7.09a36.36,36.36,0,0,1,.32-4.79,7.69,7.69,0,0,1,1.19-3.58c2.48-3,3.6-6.76,5.48-10.08,3.64-2.73,3.76-7.26,5.64-10.9a3.77,3.77,0,0,1,.53-.79,16.5,16.5,0,0,0,3.34-6.82,13,13,0,0,1,2-4.33,20.24,20.24,0,0,0,3.6-7.75,9.3,9.3,0,0,1,2.56-3.93c3.73-4,7.62-7.76,11.35-11.71a6.15,6.15,0,0,0,1.79-3.29c.37-4.77.6-9.57.59-14.36a5.69,5.69,0,0,0-5.74-5.36c-4.16-.06-8.32,0-12.47.1a7.66,7.66,0,0,0-5.32,1.87,13.56,13.56,0,0,1-9.63,3.6,9,9,0,0,0-6.24,2.09,14,14,0,0,1-9.67,3.52c-2.24.06-4.47.3-6.71.32a11.13,11.13,0,0,0-6.36,1.79,15.35,15.35,0,0,1-8,3,15.93,15.93,0,0,0-9.79,3.3,6.39,6.39,0,0,1-3.57,1.14c-7,.28-13.93,2.2-21,1a8.43,8.43,0,0,0-6.32,1.78c-1.28.92-2.58,2.2-4,2.45-4.09.7-8.29,1.27-11.95-1.61a11.35,11.35,0,0,0-7.23-2.09c-2.88,0-5.76,0-8.64-.13s-5.75-.25-8.61-.51a12.38,12.38,0,0,1-7.11-2.58,11.23,11.23,0,0,0-7.09-2.46c-6.72-.28-13.44-.69-19.34-4.56a4.57,4.57,0,0,0-1.83-.51,8.88,8.88,0,0,1-5.68-3.27,7.29,7.29,0,0,0-4.94-2.65,8.13,8.13,0,0,1-5.18-2.22,8.85,8.85,0,0,0-4.92-2.78c-.95-.15-1.91-.16-2.87-.22a15.14,15.14,0,0,1-8.82-3.35,15.62,15.62,0,0,0-5.95-3,12.84,12.84,0,0,1-4.31-1.94,15,15,0,0,0-6.86-3.23c-3.08-.42-4.83-3-7.35-4.3s-5.36-2-8-3.2a11.66,11.66,0,0,1-3-2.42c-1.14-1.12-2.09-2.44-3.31-3.47s-2.51-2.26-3.94-2.53c-4.2-.79-7.68-3.12-11.51-4.68a22.27,22.27,0,0,1-7.19-4.64c-2.21-2.12-5.51-1.57-7.93-3.16a17.54,17.54,0,0,1-2.22-1.83c-1.89-1.72-3.81-3.41-5.61-5.22a9.6,9.6,0,0,0-4.9-2.81,9.72,9.72,0,0,1-3.58-1.25c-3.14-2.29-6.77-3.58-10.15-5.36a29.6,29.6,0,0,1-8.51-6.16,9.84,9.84,0,0,0-5.63-3.43c-2.64-.48-4.4-2.55-6.66-3.66-2.56-1.26-5.67-1.63-7.89-3.26a22.84,22.84,0,0,0-9.38-4.48,5.28,5.28,0,0,1-2.37-1.51c-1.16-1.09-2.15-2.37-3.27-3.51-2.71-2.75-5.51-5.28-9.66-5.76-2.31-.27-3.91-2.11-5.62-3.54-1.95-1.63-3.63-3.66-5.75-5s-4.6-2.1-6.88-3.21a15.12,15.12,0,0,1-2.37-1.63,18.66,18.66,0,0,0-6-2.84,31.48,31.48,0,0,1-5.24-2.28c-1.71-.84-3.28-2.08-5.07-2.64a20.42,20.42,0,0,1-7.26-4.54c-3.36-2.9-6.34-6.31-11.09-7.15-1.14-.2-2.16-1.32-3.14-2.14a9.69,9.69,0,0,0-6.16-2.31,25.22,25.22,0,0,1-12.68-3.92c-1.34-.82-3-1.14-4.4-1.85a13.68,13.68,0,0,1-4-2.49c-2.42-2.62-5.35-3.22-8.69-3.07-1.91.08-3.84-.17-5.76-.2a11.74,11.74,0,0,1-7.93-2.84,9.5,9.5,0,0,0-7.13-2.22,34.63,34.63,0,0,1-6.67-.28,55.68,55.68,0,0,0-12.43-.63c-2.66.24-5.09-.11-7.12-2.05a11.28,11.28,0,0,0-7.9-2.95c-4.47-.1-9-.25-13.43-.25-20.8,0-41.6-.1-62.39,0-6.39,0-12.77.68-19.16,1a11.94,11.94,0,0,0-7.12,2.44,8.7,8.7,0,0,1-4.4,1.73c-3.81.47-7.59,1.34-11.4,1.46-5.1.15-10.26-.38-14.2,3.87a35.65,35.65,0,0,1-5.64,1c-3.34.07-6.29.85-8.74,3.25a8.89,8.89,0,0,1-6.15,2.29c-.64,0-1.28.1-1.92.08-3-.09-5.72.58-7.83,2.88s-5.3,2-7.86,3.2-4.9,2.93-7.38,4.36a4.62,4.62,0,0,1-1.86.44,18.85,18.85,0,0,0-10.6,4,6.07,6.07,0,0,1-2.57,1.26c-5.17.95-9.24,4.32-14,6.18a22.18,22.18,0,0,0-7.15,4.75,28.34,28.34,0,0,1-5.22,4.15c-6.1,3.45-12.31,6.73-18.51,10a19.45,19.45,0,0,1-5.29,2.2c-3.38.63-5.73,2.58-8,4.94-1.75,1.85-3.5,3.9-5.67,5.11a73.66,73.66,0,0,1-13,6,23.12,23.12,0,0,0-8.93,5.26,28,28,0,0,1-7.77,5.49c-3,1.25-5.85,2.34-8.23,4.64a5.77,5.77,0,0,1-3.37,1.59c-3.21.18-5.19,2-7.24,4.19-3.11,3.26-6.61,6-11.29,6.82-2,.33-3.39,1.72-4.78,3.06-2.07,2-4.16,4-6.24,6-5.16,1.74-9.19,5.8-14.49,7.21a16.52,16.52,0,0,0-5.93,3,20.36,20.36,0,0,1-4.84,3,26.05,26.05,0,0,0-8,5.19,35.39,35.39,0,0,1-8.82,5.68c-4,1.89-7.55,4.79-12.1,5.61a6.73,6.73,0,0,0-2.57,1.24c-3.14,2.26-6.69,3.71-10.17,5.34-5.49,2.57-10.78,5.55-16.25,8.17a57.38,57.38,0,0,1-7.19,2.57c-1.81.59-3.79.8-5.45,1.65a25.88,25.88,0,0,1-9.17,2.58c-1.88.2-4,.41-5.51,1.36a22.12,22.12,0,0,1-10.9,3.12c-2.85.14-5.65,1.09-8.49,1.54a50.1,50.1,0,0,1-7.6.86c-13.11.07-26.23,1.21-39.33-.13a51.21,51.21,0,0,1-20.79-2.25c-6.47-.24-12.22-3.56-18.58-4.35a14.47,14.47,0,0,1-5.32-2.09,21.81,21.81,0,0,0-9.11-2.73c-2.22-.25-4.44-.57-6.67-.83a11.46,11.46,0,0,1-6.23-2.25,14.82,14.82,0,0,0-8.85-3.19c-2.56-.17-5.18-.45-7.25-2.15-4.1-3.37-9-2.8-13.73-2.93-1.67-.05-3.76,1.83-4.16,3.51-1,4.21-.89,8.28,1.88,11.88,1.56,2,3.48,3.83,4,6.43a12.27,12.27,0,0,0,3.84,6.49,28.06,28.06,0,0,1,6.41,9.47,18.74,18.74,0,0,0,2.77,5c2.39,2.72,3.53,6,5.11,9.16,1.7,3.38,4.59,6.14,4.68,10.32,0,1.12,1,2.33,1.82,3.3,3.1,3.77,4.93,8.19,6.63,12.68a21.51,21.51,0,0,0,1.73,4.46c4.24,6.29,5.42,13.56,7,20.73a22.83,22.83,0,0,0,1.08,4.65c1.48,3.26,1.9,6.75,2.74,10.15,1.37,5.54,1.09,11.44,3.79,16.71.68,1.33.43,3.14.61,4.73a44.54,44.54,0,0,0,.79,6.66,57.81,57.81,0,0,1,1.63,15.21,16.67,16.67,0,0,0,1.78,8.34c1.29,2.3,1.25,4.89,1.24,7.48q0,22.08.12,44.15c0,2.92-.11,5.76-1.41,8.43s-1.44,5.53-1.4,8.43c.05,4.49.13,9-1,13.37a55.87,55.87,0,0,0-1.57,14.27,15.33,15.33,0,0,1-2.07,8.26,19.65,19.65,0,0,0-2.44,11.07c.09,2.55,0,5.11-.14,7.66q-.37,8.14-.86,16.29c-.11,1.91.12,4-.6,5.67-1.71,4-2,8-1.93,12.19a25.83,25.83,0,0,1-1.09,7.55,46.68,46.68,0,0,0-1.94,15.16c.16,4.52.13,9-2.59,12.92a6.14,6.14,0,0,0-.82,2.73c-.68,7-2.71,13.83-2.31,20.94a13.35,13.35,0,0,1-1.6,7.41,12.72,12.72,0,0,0-1.73,6.42c.11,7.38-2.73,14.46-2.19,21.9a10.71,10.71,0,0,1-.84,3.72c-3.26,10.46-5,21.11-4,32.12.33,3.5.42,7.08-.9,10.43A25.53,25.53,0,0,0,2937,1335a45.92,45.92,0,0,1,.12,5.75Q2936.77,1354.23,2936.42,1367.65ZM3568.55,1956c4.39-5,8.54-9.82,12.83-14.52,3.42-3.76,6.63-7.77,11.25-10.28a10.6,10.6,0,0,0,3.43-3.27,27.93,27.93,0,0,1,7.48-7.34c1.64-1.1,3-2.67,3-4.69-.09-3.27,1.78-5.28,3.8-7.42,4.37-4.65,9.2-8.93,12.76-14.3a19.39,19.39,0,0,1,6.77-6.61c3.07-1.69,4.37-4.61,4.68-7.94.44-4.77.91-9.56,1-14.35.1-9.12-2.48-12.59-11.51-15.09a38.66,38.66,0,0,1-12.12-5.54,7.74,7.74,0,0,0-4.37-1.62c-7.73.43-15.26-1.84-22.95-1.45-3.4.18-5.8-2.86-9-2.81-3.48.06-6.87.9-10.43-.14a65.22,65.22,0,0,0-18.05-2.19c-9.59,0-19.19-.23-28.79-.21-29.43.07-58.86.23-88.29.3a70.83,70.83,0,0,0-16.19,1.68,76.38,76.38,0,0,1-19.05,1.74c-5.76-.09-11.52-.38-17.27-.39-3.19,0-6.58-.25-9.5.74a37.87,37.87,0,0,1-13.2,1.73,28,28,0,0,0-15.63,3.81,12.89,12.89,0,0,1-3.49,1.52c-4.94,1.26-9.92,2.37-14.87,3.59-5.7,1.41-9.31,5.32-11.95,10.28a7.45,7.45,0,0,0-.65,2.78c-.4,4.83-.45,9.6,2.23,14a10.82,10.82,0,0,1,1.07,2.66,15.88,15.88,0,0,0,4.82,7,117.26,117.26,0,0,1,10.17,10.14c5.34,6.38,11,12.48,16.66,18.56a24.63,24.63,0,0,0,4.14,4,22.93,22.93,0,0,1,8.3,10.27,34.62,34.62,0,0,0,9.16,12.18,52.71,52.71,0,0,1,4.56,4.87,24.68,24.68,0,0,0,3.21,3.53c5.76,4.16,10.1,9.76,15.07,14.71a102.52,102.52,0,0,0,7.63,7.27c3.47,2.81,6.92,5.69,11,7.67q5.18,2.52,10.26,5.18a47.88,47.88,0,0,0,13.39,5.1c3.45.64,6.89,1.45,9.91,3.45a18.36,18.36,0,0,0,9.12,2.61c2.55.18,5.12,0,7.67.07,10.24.06,20.47.06,30.71.21a64.46,64.46,0,0,0,12.39-1,32,32,0,0,0,10.79-3.72,42.12,42.12,0,0,0,16.92-6.21,17,17,0,0,0,10.15-4.94,9.27,9.27,0,0,1,3.39-1.71,21.27,21.27,0,0,0,9.93-7.25c1.18-1.49,2.83-2.61,4-4.09,2.75-3.39,6-5.57,10.57-5.55,1.32,0,2.25-1.24,2.55-2.54A42.59,42.59,0,0,0,3568.55,1956Z" transform="translate(-2728.75 -437.6)"/><path d="M3147.8,1134.14c7.67,0,15.34,0,23,0,3.57,0,7,.27,10.21,2.06a12.06,12.06,0,0,0,6.49,1.36,60.9,60.9,0,0,1,17.12,1.58,27.89,27.89,0,0,0,5.71.61c2.93.11,5.71.56,8.14,2.37a11.24,11.24,0,0,0,6.27,2.12c6.45.36,12.45,2.73,18.66,4.13,2.8.63,5.54,1.5,8.3,2.27.92.26,2.06.32,2.69.9,4.89,4.52,11.94,4.42,17.18,8.19a11.34,11.34,0,0,0,4.52,1.49,18.37,18.37,0,0,1,8.73,3.62,9.18,9.18,0,0,0,4.35,1.75,13.19,13.19,0,0,1,8.23,4.48,57.54,57.54,0,0,0,15,11.74c3.55,2,6.57,5.06,9.6,7.88a104.2,104.2,0,0,1,7.9,8.37,14.2,14.2,0,0,1,2.91,4.87,15.63,15.63,0,0,0,4.5,7.22c4.24,3.82,6.39,8.69,7.42,14.16.18.94.09,2.08.6,2.79,3.79,5.29,3,11.63,4.21,17.51s.65,11.45.13,17.19a17.22,17.22,0,0,0,.33,5.69c.81,3.23.33,6.26-.28,9.45a91.08,91.08,0,0,0-1.35,12.36,18.81,18.81,0,0,1-4.1,10.54,3.73,3.73,0,0,1-3.36,1.52c-4.44-.54-8.84-1.25-12.91-3.29a18.14,18.14,0,0,0-5.26-2.19,39.12,39.12,0,0,1-12.8-3.76,8.59,8.59,0,0,0-2.77-.73c-11.08-1.53-22.19-2.86-33.42-2.24-1.6.09-3.2.12-4.79.19a8.25,8.25,0,0,1-5.49-1.35c-3.3-2.54-7.09-2.72-10.95-2.62-10.25.27-20.44-.71-30.64-1.35-3.25-.21-6.32-.67-9.09-2.54a7.78,7.78,0,0,0-5.52-1.17,21.82,21.82,0,0,1-10.38-1,43.39,43.39,0,0,0-5.63-1.07c-.93-.19-2.1-.18-2.74-.74-4.05-3.55-9.19-4.26-14.05-5.78a26.11,26.11,0,0,1-5-2.81c-4.1-2.45-8.06-5.09-12.66-6.74-2.62-.94-4.84-3-7.2-4.63-2.1-1.44-4-3.47-6.28-4.3-4.13-1.49-7-4.45-9.95-7.3-6.25-5.94-12.42-12-18.68-17.87-3.07-2.9-5.8-5.91-6.51-10.31-.38-2.29-2.05-4-3.57-5.59a32.3,32.3,0,0,1-7.15-11.17c-1.55-4.14-4.24-7.84-6.28-11.82-1.45-2.84-2.73-5.77-3.93-8.72a6.5,6.5,0,0,1-.62-3.67,8.81,8.81,0,0,0-1.93-8,12.25,12.25,0,0,1-2.53-7.13,17.05,17.05,0,0,0-2.84-9,4.79,4.79,0,0,1,1.06-6.1c3-2.4,5.92-4.87,9.09-7a18.14,18.14,0,0,1,9.06-2.83q3.34-.18,6.71-.09c3.56.1,7-.12,10.19-2,2.28-1.34,4.85-1.5,7.43-1.5h24.94Z" transform="translate(-2728.75 -437.6)"/><path d="M3707.16,1285.18c-7.35,0-14.71,0-22.06,0-2.93,0-5.73.22-8.16,2.14a11,11,0,0,1-7.22,2.08c-2.56,0-5.12,0-7.67-.05a63.75,63.75,0,0,0-13.38.71,37.78,37.78,0,0,1-5.73.51c-3.88.07-7.65.24-10.8,3.06a7.9,7.9,0,0,1-3.52,1.34c-2.5.55-5,1.34-7.54,1.3-4.75-.1-8.75,1.07-11.93,4.76a5.08,5.08,0,0,1-2.6,1.08,3.48,3.48,0,0,1-3.53-.94,49.64,49.64,0,0,1-4.61-6.11,11.61,11.61,0,0,1-1.52-4.44c-.6-4.43-1-8.89-1.4-13.34a23.87,23.87,0,0,1,.06-5.73c.89-5.41.68-10.83.71-16.26s.4-10.86.57-16.28a14.32,14.32,0,0,1,2.05-7.28,11.84,11.84,0,0,0,1.81-4.37,9.47,9.47,0,0,1,3.6-6.5,5.63,5.63,0,0,0,2.19-3c.76-5.59,5.4-9.42,6.46-14.87.22-1.11,1.34-2.14,2.23-3,6.06-6.13,12.19-12.2,18.26-18.31,1.83-1.84,3.69-3.51,6.37-4a9.51,9.51,0,0,0,4.87-2.9c4.69-4.68,10.71-6.71,16.87-8.46,1.51-.43,3.39-.61,4.4-1.6,4.55-4.47,10.85-5.22,16.18-8,1.41-.73,3.17-.86,4.45-1.73,5.8-4,12.39-4.64,19.1-4.92,1.65-.07,3.33-.24,4.46-1.4,3.21-3.29,7.38-3.58,11.52-4a30.54,30.54,0,0,1,4.78.07,8.45,8.45,0,0,0,6.28-1.8c2.87-2.38,6.26-3.06,9.84-3.18,5.75-.2,11.49-.5,17.24-.54,4.2,0,8.29,0,11.87-2.77,1.55-1.19,3.55-1.34,5.5-1.34q20.63,0,41.24,0a10.07,10.07,0,0,1,6.31,1.91c2.43,1.86,5.2,2.25,8.13,2.31,6.07.13,12.14.36,18.21.49a8.81,8.81,0,0,1,6,2.58c1.4,1.3,3,2.45,4.32,3.78a3.84,3.84,0,0,1,1.29,3.45,38.17,38.17,0,0,0-.33,10.51c.42,3.88-.49,7.64-1.09,11.42a9.45,9.45,0,0,1-1.36,3.54,26.43,26.43,0,0,0-3.28,6.89c-1.22,4.32-5.36,7.29-5.54,12.08-2,4-3.65,8.15-5.94,12a41.85,41.85,0,0,1-6.13,7.32c-2.05,2.11-3.91,4.2-4.43,7.21a10.81,10.81,0,0,1-3.4,5.67c-1.34,1.37-2.69,2.73-4.07,4.07a16.81,16.81,0,0,1-2.17,1.88c-3.3,2.19-4.73,6-7.56,8.6s-6.16,4.62-8.29,7.91a7.28,7.28,0,0,1-6.29,3.75,7.09,7.09,0,0,0-5.06,2.36c-1.79,1.83-3.62,3.62-5.57,5.27a11.27,11.27,0,0,1-4,2.54,29.34,29.34,0,0,0-9.36,4.58c-2.82,2-6.54,2.44-9.27,4.85-2,1.76-4.63,2.19-7.2,2.23-3.94.07-7.56.71-10.68,3.43-2,1.73-4.66,2.07-7.21,2.29a13.91,13.91,0,0,0-7.93,3,8.56,8.56,0,0,1-5.39,1.66q-12,.36-23.95.77Z" transform="translate(-2728.75 -437.6)"/><polygon class="cls-1" points="738.48 4.75 0.63 426.38 0.63 1279.44 738.48 1708.42 1473.88 1284.34 1473.88 431.28 738.48 4.75"/></svg>