<?xml version="1.0" standalone="no"?>
<!DOCTYPE svg PUBLIC "-//W3C//DTD SVG 20010904//EN"
 "http://www.w3.org/TR/2001/REC-SVG-20010904/DTD/svg10.dtd">
<svg version="1.0" xmlns="http://www.w3.org/2000/svg"
 width="7500.000000pt" height="7500.000000pt" viewBox="0 0 7500.000000 7500.000000"
 preserveAspectRatio="xMidYMid meet">
<defs>
    <linearGradient id="leo-gradient" x1="0%" y1="100%" x2="100%" y2="0%">
        <stop offset="0%" style="stop-color:#932c53;" />
        <stop offset="50%" style="stop-color:#7f5e7d;" />
    </linearGradient>
</defs>
<g transform="translate(0.000000,7500.000000) scale(0.100000,-0.100000)"
fill="url(#leo-gradient)" stroke="none">
<path d="M21908 64787 l-15488 -8942 0 -17900 0 -17900 15489 -8942 c8518
-4919 15494 -8943 15501 -8943 7 0 6983 4024 15501 8943 l15489 8942 0 17900
0 17900 -15489 8943 c-8518 4918 -15494 8942 -15502 8942 -8 0 -6983 -4025
-15501 -8943z m16947 -2519 c22 -6 96 -15 165 -19 69 -5 175 -13 235 -18 61
-5 158 -14 216 -19 58 -5 112 -13 120 -17 7 -5 54 -13 104 -18 49 -4 126 -13
170 -18 44 -5 107 -12 140 -15 33 -3 69 -9 80 -14 11 -5 47 -11 80 -14 33 -3
89 -10 125 -15 36 -6 93 -14 127 -19 33 -5 67 -13 75 -18 12 -8 68 -17 178
-30 25 -3 54 -9 65 -14 19 -8 39 -12 155 -26 25 -3 49 -10 55 -15 5 -5 28 -9
51 -9 24 0 46 -4 49 -10 3 -5 19 -10 35 -10 16 0 41 -5 57 -11 27 -11 84 -24
166 -36 20 -3 40 -9 43 -14 3 -5 23 -9 44 -9 21 0 41 -4 44 -9 3 -5 23 -11 43
-15 93 -14 119 -19 128 -26 6 -4 29 -11 52 -15 24 -4 45 -11 49 -16 3 -5 20
-9 39 -9 19 0 37 -4 40 -10 3 -5 21 -10 40 -10 19 0 37 -4 40 -10 3 -5 19 -10
35 -10 16 0 32 -4 35 -10 3 -5 19 -10 35 -10 16 0 32 -4 35 -10 3 -5 21 -10
39 -10 18 0 36 -3 39 -6 11 -11 110 -43 134 -44 12 0 25 -4 28 -10 3 -5 19
-10 35 -10 16 0 32 -4 35 -10 3 -5 19 -10 35 -10 16 0 32 -4 35 -10 3 -5 17
-10 30 -10 13 0 27 -4 30 -10 3 -5 19 -10 34 -10 16 0 34 -7 41 -15 7 -8 23
-15 36 -15 12 0 26 -4 29 -10 3 -5 19 -10 35 -10 16 0 32 -4 35 -10 3 -5 17
-10 30 -10 13 0 27 -4 30 -10 3 -5 17 -10 30 -10 13 0 27 -4 30 -10 3 -5 17
-10 31 -10 24 0 30 -2 92 -33 19 -9 42 -17 52 -17 10 0 21 -4 24 -8 3 -4 28
-14 56 -22 28 -8 53 -18 56 -22 3 -4 16 -8 29 -8 13 0 27 -4 30 -10 3 -5 17
-10 31 -10 13 0 24 -4 24 -10 0 -5 7 -10 15 -10 8 0 31 -7 52 -16 21 -9 49
-21 63 -27 14 -5 33 -13 42 -18 10 -5 25 -9 33 -9 8 0 23 -4 33 -9 9 -5 29
-14 45 -20 29 -12 65 -27 112 -46 28 -12 51 -22 110 -45 14 -5 36 -14 50 -20
14 -5 35 -14 48 -19 12 -5 49 -21 82 -36 91 -42 148 -67 170 -75 35 -13 80
-32 95 -41 8 -5 31 -16 50 -25 19 -8 43 -20 52 -25 10 -5 25 -9 33 -9 8 0 15
-4 15 -10 0 -5 7 -10 15 -10 8 0 23 -4 33 -9 9 -5 33 -17 52 -25 19 -9 42 -21
50 -26 8 -5 47 -23 85 -41 94 -42 160 -75 220 -109 28 -15 58 -29 68 -29 9 -1
17 -5 17 -11 0 -5 7 -10 15 -10 8 0 31 -10 52 -22 35 -19 277 -146 330 -172
13 -6 23 -14 23 -18 0 -5 7 -8 15 -8 14 0 53 -18 65 -30 3 -3 23 -14 45 -26
102 -53 150 -79 155 -84 3 -3 19 -12 35 -20 17 -8 53 -28 80 -45 28 -17 64
-37 80 -45 17 -8 32 -17 35 -20 3 -3 19 -12 35 -20 17 -8 53 -29 82 -47 29
-18 55 -33 58 -33 4 0 26 -13 50 -30 24 -16 46 -30 49 -30 3 0 30 -15 59 -34
49 -31 99 -61 152 -90 11 -6 41 -26 67 -44 26 -17 51 -32 57 -32 6 0 11 -4 11
-8 0 -5 16 -14 35 -22 19 -8 35 -17 35 -22 0 -4 4 -8 10 -8 5 0 32 -16 59 -35
26 -19 53 -35 60 -35 6 0 11 -3 11 -8 0 -4 15 -14 33 -21 17 -8 43 -25 57 -38
14 -13 28 -23 33 -23 4 0 35 -18 67 -40 32 -22 63 -40 69 -40 5 0 11 -3 13 -7
5 -11 146 -103 158 -103 5 0 10 -4 10 -10 0 -5 4 -10 9 -10 5 0 75 -45 156
-100 80 -55 150 -100 155 -100 6 0 10 -4 10 -10 0 -5 7 -10 15 -10 8 0 15 -4
15 -10 0 -5 7 -10 15 -10 8 0 15 -4 15 -10 0 -5 5 -10 11 -10 11 0 82 -50 87
-62 2 -5 8 -8 14 -8 8 0 235 -152 276 -185 7 -5 18 -14 25 -20 7 -5 24 -16 39
-24 15 -8 37 -22 47 -33 11 -10 25 -18 31 -18 5 0 10 -4 10 -10 0 -5 6 -10 14
-10 8 0 16 -4 18 -8 2 -5 64 -51 138 -102 74 -52 137 -98 138 -102 2 -4 9 -8
16 -8 7 0 30 -15 52 -33 21 -18 91 -68 154 -111 63 -43 117 -83 118 -87 2 -5
10 -9 18 -9 8 0 14 -4 14 -10 0 -5 6 -10 14 -10 8 0 16 -4 18 -8 2 -4 35 -30
73 -57 39 -27 72 -53 73 -57 2 -5 10 -8 17 -8 7 0 15 -3 17 -8 2 -4 28 -25 58
-47 30 -22 57 -42 60 -45 3 -3 17 -11 32 -19 15 -8 37 -23 48 -33 20 -19 101
-77 325 -234 61 -42 112 -81 113 -85 2 -5 10 -9 18 -9 8 0 14 -4 14 -10 0 -5
6 -10 14 -10 8 0 16 -4 18 -8 2 -5 41 -35 88 -68 47 -32 87 -62 88 -66 2 -5
10 -8 17 -8 7 0 15 -3 17 -7 2 -5 13 -15 24 -23 12 -8 86 -60 165 -114 79 -55
146 -104 147 -108 2 -4 9 -8 16 -8 7 0 21 -9 31 -20 11 -12 34 -28 52 -37 18
-8 33 -19 33 -24 0 -5 7 -9 15 -9 8 0 15 -3 15 -7 0 -5 21 -21 48 -38 26 -16
56 -38 66 -47 11 -10 26 -18 33 -18 7 0 13 -4 13 -10 0 -5 6 -10 14 -10 8 0
16 -3 18 -8 5 -12 105 -82 117 -82 6 0 11 -4 11 -10 0 -5 6 -10 13 -10 7 0 23
-9 35 -20 12 -11 24 -20 27 -20 3 0 11 -5 18 -10 26 -23 250 -170 258 -170 5
0 9 -4 9 -10 0 -5 7 -10 15 -10 8 0 15 -4 15 -10 0 -5 5 -10 11 -10 6 0 36
-17 67 -38 97 -65 201 -132 208 -132 3 0 20 -11 38 -25 18 -14 38 -25 44 -25
7 0 12 -4 12 -10 0 -5 7 -10 15 -10 8 0 15 -4 15 -10 0 -5 4 -10 10 -10 5 0
41 -20 80 -45 39 -25 75 -45 80 -45 6 0 10 -4 10 -9 0 -5 8 -11 18 -15 18 -6
43 -20 130 -73 29 -18 57 -33 62 -33 6 0 10 -4 10 -8 0 -5 16 -14 35 -22 19
-8 35 -17 35 -22 0 -4 5 -8 10 -8 6 0 29 -12 53 -27 23 -15 74 -43 112 -63 39
-20 88 -48 110 -61 84 -50 595 -309 611 -309 8 0 14 -4 14 -10 0 -5 9 -10 20
-10 11 0 20 -4 20 -10 0 -5 6 -10 14 -10 8 0 47 -16 87 -36 41 -20 83 -40 94
-44 11 -4 40 -17 65 -28 98 -44 182 -81 240 -104 14 -6 33 -14 42 -19 10 -5
27 -9 38 -9 11 0 20 -4 20 -10 0 -5 11 -10 24 -10 13 0 28 -6 34 -13 6 -7 34
-19 62 -27 28 -8 53 -18 56 -22 3 -4 14 -8 25 -8 10 0 28 -4 39 -10 11 -5 29
-14 40 -20 11 -5 29 -10 39 -10 11 0 23 -4 26 -10 3 -5 17 -10 30 -10 13 0 26
-4 30 -9 3 -5 20 -13 37 -17 18 -3 39 -10 48 -14 8 -5 35 -13 60 -20 25 -7 53
-16 62 -21 10 -5 27 -9 37 -9 11 0 23 -4 26 -10 3 -5 16 -10 27 -10 24 0 75
-15 126 -36 18 -8 44 -14 57 -14 13 0 27 -4 30 -10 3 -5 19 -10 35 -10 16 0
32 -4 35 -10 3 -5 24 -10 45 -10 21 0 42 -4 45 -10 3 -5 21 -10 40 -10 19 0
37 -4 40 -10 3 -5 23 -10 44 -10 21 0 41 -3 45 -7 7 -7 28 -13 166 -44 68 -15
148 -29 213 -35 31 -4 60 -10 63 -15 3 -5 31 -9 63 -9 31 0 61 -4 66 -9 6 -5
42 -12 80 -15 118 -10 263 -31 271 -38 4 -5 57 -8 119 -8 62 0 115 -4 121 -10
13 -13 1084 -6 1264 8 69 6 175 17 235 26 128 19 247 35 325 42 30 3 64 9 75
14 11 5 44 12 73 15 131 13 158 17 167 26 5 5 26 9 46 9 20 0 56 7 79 15 23 8
55 15 71 15 15 0 31 5 34 10 3 6 26 10 50 10 24 0 47 5 50 10 3 6 24 10 45 10
21 0 42 5 45 10 3 6 24 10 45 10 21 0 42 5 45 10 3 6 21 10 40 10 19 0 37 5
40 10 3 6 21 10 38 10 18 1 43 7 57 15 14 8 37 14 52 15 15 0 30 5 33 10 3 6
19 10 35 10 16 0 32 5 35 10 3 6 21 10 40 10 19 0 37 5 40 10 3 6 19 10 35 10
16 0 32 5 35 10 3 6 16 10 27 10 26 0 83 17 120 36 14 8 35 14 46 14 12 0 24
5 27 10 3 6 17 10 31 10 13 0 32 4 42 9 9 5 37 14 62 21 25 7 53 16 62 21 10
5 27 9 37 9 11 0 23 5 26 10 3 6 15 10 27 10 11 0 34 7 51 16 59 31 67 34 86
34 11 0 23 5 26 10 3 6 17 10 30 10 13 0 27 5 30 10 3 6 15 10 26 10 10 0 27
4 37 9 18 9 38 18 112 46 25 10 56 22 70 28 14 5 36 14 50 20 14 5 33 13 42
18 10 5 25 9 33 9 8 0 23 4 33 9 75 39 127 61 143 61 10 0 19 5 19 10 0 6 7
10 15 10 8 0 23 4 33 9 9 5 28 13 42 19 42 17 103 44 144 63 22 11 43 19 48
19 15 0 9 -80 -7 -86 -8 -4 -15 -11 -15 -18 0 -6 -13 -25 -28 -43 -15 -17 -58
-78 -97 -134 -38 -56 -76 -108 -82 -115 -7 -7 -13 -17 -13 -21 0 -5 -8 -18
-18 -29 -17 -19 -193 -280 -201 -298 -2 -5 -37 -61 -77 -123 -41 -62 -74 -116
-74 -119 0 -3 -13 -25 -30 -49 -17 -24 -30 -47 -30 -51 0 -4 -6 -15 -14 -23
-7 -9 -24 -36 -37 -61 -13 -25 -27 -47 -30 -50 -3 -3 -8 -12 -12 -20 -4 -8
-18 -33 -31 -55 -14 -22 -35 -58 -46 -80 -11 -22 -40 -76 -64 -120 -71 -128
-96 -178 -96 -192 0 -7 -4 -13 -10 -13 -5 0 -10 -9 -10 -20 0 -11 -4 -20 -8
-20 -11 0 -122 -223 -122 -244 0 -9 -4 -16 -10 -16 -5 0 -10 -8 -10 -19 0 -10
-7 -24 -15 -31 -8 -7 -15 -19 -15 -26 0 -8 -4 -14 -10 -14 -5 0 -10 -7 -10
-15 0 -8 -4 -23 -9 -33 -5 -9 -19 -39 -31 -67 -12 -27 -26 -58 -31 -67 -5 -10
-9 -24 -9 -32 0 -7 -7 -19 -15 -26 -8 -7 -13 -16 -10 -20 3 -4 -2 -13 -10 -20
-8 -7 -15 -19 -15 -26 0 -8 -4 -22 -9 -32 -5 -9 -14 -30 -21 -47 -7 -16 -16
-38 -21 -47 -5 -10 -9 -25 -9 -33 0 -8 -4 -15 -10 -15 -5 0 -10 -11 -10 -24 0
-13 -7 -29 -15 -36 -9 -7 -14 -18 -12 -25 3 -6 -1 -19 -9 -30 -8 -10 -14 -27
-14 -37 0 -10 -4 -18 -10 -18 -5 0 -10 -11 -10 -25 0 -14 -4 -25 -10 -25 -5 0
-10 -13 -10 -30 0 -16 -4 -30 -10 -30 -5 0 -10 -9 -10 -19 0 -11 -4 -23 -10
-26 -5 -3 -10 -15 -10 -26 0 -10 -4 -27 -10 -37 -14 -26 -37 -82 -51 -127 -7
-22 -17 -44 -21 -49 -4 -6 -8 -20 -8 -32 0 -13 -4 -26 -10 -29 -5 -3 -10 -19
-10 -36 0 -16 -4 -29 -9 -29 -5 0 -12 -16 -15 -35 -4 -19 -12 -35 -18 -35 -5
0 -8 -6 -5 -14 3 -7 -1 -26 -9 -41 -8 -15 -14 -38 -14 -51 0 -13 -4 -24 -10
-24 -5 0 -10 -13 -10 -29 0 -17 -4 -33 -10 -36 -5 -3 -10 -19 -10 -36 0 -16
-4 -29 -9 -29 -5 0 -11 -15 -14 -32 -10 -61 -26 -113 -36 -116 -6 -2 -11 -19
-11 -38 0 -19 -4 -34 -9 -34 -8 0 -14 -23 -27 -113 -4 -20 -10 -40 -15 -43 -5
-3 -9 -20 -9 -39 0 -19 -4 -37 -10 -40 -5 -3 -10 -19 -10 -35 0 -16 -4 -32
-10 -35 -5 -3 -10 -21 -10 -39 0 -17 -5 -37 -12 -44 -6 -6 -15 -30 -19 -54 -4
-24 -13 -63 -19 -88 -7 -25 -14 -63 -17 -85 -3 -22 -9 -44 -14 -49 -5 -6 -9
-26 -9 -46 0 -20 -4 -40 -9 -46 -5 -5 -11 -27 -14 -49 -13 -89 -23 -141 -32
-155 -10 -16 -23 -85 -32 -165 -2 -27 -9 -54 -14 -59 -5 -6 -9 -33 -9 -61 0
-28 -4 -55 -9 -61 -5 -5 -12 -31 -15 -59 -3 -27 -10 -79 -15 -115 -6 -36 -15
-101 -21 -145 -7 -44 -16 -81 -21 -83 -5 -2 -9 -37 -9 -77 0 -41 -4 -77 -10
-80 -5 -3 -10 -44 -10 -91 0 -46 -4 -84 -9 -84 -5 0 -12 -37 -15 -82 -3 -46
-10 -126 -15 -178 -5 -52 -14 -153 -20 -225 -6 -71 -18 -209 -27 -305 -9 -96
-20 -285 -26 -420 -16 -428 -9 -1856 11 -1870 4 -3 13 -104 20 -225 25 -420
43 -652 81 -1050 6 -60 13 -155 16 -210 3 -55 9 -102 14 -105 9 -6 37 -247 56
-480 3 -41 10 -79 15 -84 5 -6 9 -47 9 -93 0 -46 4 -83 9 -83 5 0 12 -35 15
-77 3 -43 8 -114 12 -158 3 -44 10 -82 15 -85 5 -4 14 -49 20 -101 26 -217 36
-298 59 -454 19 -130 30 -216 36 -285 4 -36 11 -70 16 -77 5 -6 14 -47 19 -90
5 -43 14 -107 20 -143 21 -139 30 -207 35 -265 3 -33 10 -64 15 -69 5 -6 9
-34 9 -64 0 -29 4 -61 9 -70 5 -10 12 -45 14 -79 3 -34 9 -68 13 -75 5 -7 12
-38 16 -68 3 -30 12 -86 18 -125 6 -38 15 -99 20 -135 6 -36 14 -92 19 -125 5
-33 14 -91 19 -130 6 -38 13 -77 16 -85 9 -23 43 -235 52 -330 3 -30 10 -59
15 -64 5 -6 9 -36 9 -67 0 -32 5 -61 10 -64 6 -3 10 -33 10 -66 0 -33 4 -59
10 -59 6 0 10 -28 10 -63 0 -35 4 -67 9 -72 9 -10 25 -94 42 -222 5 -35 14
-93 19 -130 6 -38 13 -90 16 -118 3 -27 9 -59 14 -70 5 -11 11 -45 14 -75 10
-110 23 -197 32 -211 5 -8 12 -39 16 -69 4 -30 12 -91 18 -135 6 -44 13 -105
16 -135 3 -30 9 -64 14 -75 5 -11 11 -47 14 -80 15 -169 19 -195 27 -195 5 0
9 -27 9 -61 0 -33 5 -69 11 -80 6 -11 15 -57 21 -102 5 -45 14 -111 19 -147 5
-36 13 -99 19 -140 6 -41 13 -110 16 -152 3 -43 10 -78 14 -78 5 0 11 -35 13
-77 3 -43 13 -123 22 -178 24 -148 53 -390 61 -512 3 -46 9 -83 14 -83 5 0 11
-39 14 -87 7 -118 22 -262 41 -408 8 -66 20 -174 26 -240 6 -66 15 -167 20
-225 6 -58 12 -162 15 -232 3 -71 9 -128 15 -128 5 0 9 -62 9 -149 0 -89 4
-152 10 -156 6 -4 10 -74 10 -176 0 -102 4 -178 11 -190 15 -29 34 -669 34
-1164 0 -476 -18 -1046 -34 -1088 -6 -16 -11 -93 -11 -172 0 -85 -4 -146 -10
-150 -6 -4 -10 -58 -10 -131 0 -76 -4 -124 -10 -124 -6 0 -10 -41 -10 -103 0
-57 -4 -107 -9 -113 -5 -5 -12 -47 -15 -94 -13 -169 -46 -422 -56 -430 -7 -5
-12 -44 -26 -200 -3 -30 -9 -64 -14 -75 -5 -11 -11 -42 -14 -70 -5 -48 -16
-122 -35 -230 -9 -53 -27 -130 -42 -181 -5 -17 -9 -46 -9 -65 0 -19 -4 -39 -9
-45 -5 -5 -12 -29 -15 -54 -10 -85 -17 -125 -26 -145 -5 -11 -11 -36 -14 -55
-8 -60 -26 -132 -35 -144 -4 -6 -11 -29 -14 -51 -4 -22 -12 -60 -18 -85 -6
-25 -13 -60 -16 -78 -3 -18 -9 -35 -14 -38 -5 -3 -9 -23 -9 -44 0 -21 -4 -42
-10 -45 -5 -3 -10 -17 -10 -31 0 -13 -4 -32 -9 -42 -15 -31 -41 -119 -41 -140
0 -12 -4 -24 -10 -27 -5 -3 -10 -19 -10 -35 0 -16 -4 -32 -10 -35 -5 -3 -10
-19 -10 -35 0 -16 -4 -32 -10 -35 -5 -3 -10 -19 -10 -35 0 -16 -4 -32 -10 -35
-5 -3 -10 -19 -10 -34 0 -15 -4 -31 -8 -37 -10 -10 -30 -66 -62 -174 -12 -41
-26 -83 -31 -92 -5 -10 -9 -27 -9 -37 0 -11 -4 -23 -10 -26 -5 -3 -10 -15 -10
-26 0 -10 -4 -27 -9 -37 -26 -47 -41 -87 -41 -109 0 -12 -4 -23 -10 -23 -5 0
-10 -13 -10 -30 0 -16 -4 -30 -10 -30 -5 0 -10 -11 -10 -25 0 -14 -4 -25 -10
-25 -5 0 -10 -8 -10 -18 0 -10 -7 -27 -15 -38 -8 -10 -15 -27 -15 -36 0 -10
-4 -18 -10 -18 -5 0 -10 -6 -10 -14 0 -8 -10 -34 -21 -58 -12 -23 -26 -53 -30
-65 -19 -49 -29 -71 -73 -163 -25 -53 -46 -103 -46 -113 0 -9 -4 -17 -10 -17
-5 0 -10 -9 -10 -20 0 -11 -4 -20 -10 -20 -5 0 -10 -9 -10 -19 0 -11 -4 -23
-10 -26 -5 -3 -17 -23 -26 -43 -45 -101 -278 -567 -285 -570 -5 -2 -9 -10 -9
-17 0 -12 -36 -84 -89 -178 -11 -21 -21 -44 -21 -52 0 -8 -3 -15 -8 -15 -4 0
-15 -17 -25 -37 -9 -21 -28 -56 -42 -78 -14 -22 -43 -76 -65 -120 -23 -44 -52
-98 -65 -120 -14 -22 -37 -65 -52 -95 -15 -30 -42 -76 -60 -102 -18 -26 -33
-55 -33 -63 0 -8 -3 -15 -7 -15 -5 0 -13 -10 -19 -23 -28 -55 -62 -116 -92
-161 -18 -28 -32 -56 -32 -63 0 -7 -4 -13 -10 -13 -5 0 -10 -5 -10 -10 0 -6
-24 -47 -53 -93 -29 -45 -64 -103 -77 -129 -14 -27 -28 -48 -32 -48 -5 0 -8
-4 -8 -10 0 -9 -39 -72 -60 -97 -5 -7 -10 -19 -10 -28 0 -8 -4 -15 -8 -15 -5
0 -15 -12 -23 -27 -8 -16 -28 -48 -44 -73 -17 -25 -37 -57 -45 -72 -7 -16 -17
-28 -22 -28 -4 0 -8 -7 -8 -15 0 -8 -7 -23 -15 -32 -26 -30 -205 -305 -205
-314 0 -5 -4 -9 -10 -9 -5 0 -10 -6 -10 -13 0 -7 -8 -22 -18 -33 -10 -10 -27
-34 -37 -51 -11 -18 -23 -33 -27 -33 -4 0 -8 -6 -8 -13 0 -7 -9 -23 -20 -35
-11 -12 -20 -24 -20 -27 0 -8 -134 -200 -142 -203 -4 -2 -8 -9 -8 -15 0 -7
-11 -24 -25 -39 -14 -15 -25 -31 -25 -35 0 -4 -14 -24 -30 -43 -16 -19 -30
-38 -30 -42 0 -4 -25 -40 -55 -80 -30 -40 -66 -89 -80 -108 -137 -187 -289
-391 -309 -415 -15 -16 -36 -44 -48 -61 -46 -63 -166 -220 -185 -239 -10 -11
-29 -36 -43 -55 -13 -19 -27 -37 -30 -40 -3 -3 -24 -27 -45 -55 -22 -27 -42
-52 -45 -55 -3 -3 -23 -27 -45 -55 -22 -27 -54 -66 -72 -85 -18 -19 -33 -39
-33 -43 0 -5 -22 -32 -48 -60 -27 -29 -56 -62 -64 -75 -8 -12 -33 -42 -54 -65
-22 -23 -52 -58 -68 -77 -15 -19 -45 -53 -65 -75 -20 -22 -58 -67 -86 -100
-27 -33 -61 -71 -75 -85 -14 -14 -52 -57 -85 -95 -33 -38 -69 -79 -80 -91 -38
-40 -157 -169 -193 -209 -300 -328 -733 -759 -1122 -1115 -56 -52 -113 -104
-124 -115 -12 -11 -46 -41 -76 -66 -30 -26 -69 -60 -85 -75 -17 -16 -57 -51
-90 -79 -33 -27 -62 -52 -65 -55 -18 -18 -102 -91 -139 -120 -25 -19 -63 -51
-85 -71 -23 -19 -63 -53 -91 -75 -27 -21 -61 -49 -75 -61 -24 -20 -147 -120
-180 -146 -9 -7 -45 -34 -80 -62 -36 -27 -67 -52 -70 -55 -3 -3 -21 -17 -40
-30 -19 -13 -40 -29 -46 -35 -6 -5 -27 -21 -47 -35 -20 -14 -37 -28 -37 -32 0
-5 -4 -8 -10 -8 -5 0 -18 -7 -27 -15 -25 -20 -89 -68 -143 -107 -25 -17 -46
-35 -48 -40 -2 -4 -10 -8 -17 -8 -7 0 -15 -4 -17 -9 -1 -5 -57 -46 -123 -91
-66 -45 -121 -86 -123 -91 -2 -5 -10 -9 -17 -9 -7 0 -15 -4 -17 -9 -3 -8 -101
-76 -139 -96 -11 -5 -19 -13 -19 -17 0 -5 -7 -8 -15 -8 -8 0 -15 -4 -15 -10 0
-5 -5 -10 -10 -10 -6 0 -66 -38 -134 -85 -68 -47 -127 -85 -130 -85 -3 0 -28
-16 -55 -35 -26 -19 -51 -35 -54 -35 -4 0 -52 -29 -107 -65 -55 -36 -105 -65
-110 -65 -6 0 -10 -3 -10 -8 0 -4 -15 -13 -32 -21 -18 -8 -47 -25 -64 -38 -17
-13 -36 -23 -42 -23 -7 0 -12 -3 -12 -8 0 -4 -15 -13 -32 -21 -18 -8 -35 -17
-38 -20 -3 -3 -30 -19 -60 -35 -30 -16 -57 -31 -60 -35 -3 -3 -27 -17 -55 -31
-27 -14 -52 -27 -55 -30 -3 -3 -26 -16 -53 -29 -26 -13 -52 -30 -58 -38 -6 -7
-20 -13 -29 -13 -10 0 -20 -3 -22 -7 -4 -10 -377 -202 -618 -318 -30 -14 -62
-30 -70 -35 -14 -7 -54 -26 -152 -69 -24 -10 -79 -35 -123 -56 -44 -20 -89
-41 -100 -45 -11 -4 -32 -12 -47 -19 -16 -6 -38 -15 -50 -20 -13 -5 -50 -21
-83 -36 -33 -15 -69 -31 -80 -35 -11 -4 -32 -12 -47 -19 -52 -21 -73 -29 -108
-41 -19 -7 -48 -18 -65 -25 -16 -7 -43 -18 -60 -25 -16 -7 -38 -16 -47 -21
-10 -5 -27 -9 -37 -9 -11 0 -23 -4 -26 -10 -3 -5 -16 -10 -29 -10 -12 0 -26
-4 -31 -8 -6 -5 -30 -15 -55 -22 -25 -8 -54 -20 -65 -27 -11 -7 -28 -13 -37
-13 -10 0 -27 -5 -38 -10 -11 -6 -29 -15 -40 -20 -11 -6 -31 -10 -44 -10 -14
0 -28 -4 -31 -10 -3 -5 -17 -10 -30 -10 -13 0 -27 -4 -30 -10 -3 -5 -17 -10
-31 -10 -13 0 -32 -4 -42 -9 -46 -23 -95 -41 -112 -41 -10 0 -22 -4 -25 -10
-3 -5 -19 -10 -35 -10 -16 0 -32 -5 -35 -10 -3 -6 -19 -10 -35 -10 -16 0 -31
-4 -34 -9 -3 -5 -22 -12 -41 -15 -19 -3 -51 -9 -70 -12 -19 -3 -38 -10 -41
-15 -3 -5 -18 -9 -33 -9 -15 0 -36 -7 -47 -15 -10 -8 -33 -15 -51 -15 -17 0
-35 -4 -38 -10 -3 -5 -21 -10 -40 -10 -19 0 -37 -4 -40 -10 -3 -5 -21 -10 -40
-10 -19 0 -36 -4 -39 -9 -3 -5 -23 -11 -43 -14 -36 -5 -59 -10 -178 -37 -27
-6 -59 -15 -70 -20 -11 -5 -37 -11 -57 -14 -21 -3 -55 -9 -75 -12 -21 -3 -47
-9 -58 -14 -11 -5 -40 -11 -65 -14 -25 -3 -72 -10 -105 -16 -33 -6 -88 -14
-121 -19 -34 -4 -66 -11 -72 -15 -16 -10 -245 -44 -352 -52 -36 -3 -74 -9 -85
-14 -11 -5 -56 -12 -100 -15 -44 -3 -129 -10 -190 -15 -60 -6 -173 -13 -250
-16 -86 -3 -145 -10 -154 -17 -20 -17 -1063 -23 -1176 -7 -75 11 -233 23 -460
35 -55 3 -109 10 -120 15 -11 5 -54 12 -95 15 -194 13 -226 16 -245 25 -11 5
-45 11 -75 14 -88 7 -193 25 -215 35 -11 6 -40 12 -65 15 -25 3 -74 10 -110
16 -36 6 -83 13 -105 16 -22 3 -49 9 -60 14 -11 5 -36 11 -55 14 -100 15 -234
47 -246 59 -4 4 -24 7 -45 7 -21 0 -40 4 -43 9 -3 5 -24 12 -46 15 -22 3 -58
9 -80 12 -22 3 -43 10 -46 15 -3 5 -20 9 -39 9 -19 0 -37 5 -40 10 -3 6 -18
10 -33 10 -15 0 -36 6 -47 14 -11 7 -33 16 -50 19 -16 3 -48 11 -70 17 -22 7
-55 14 -73 17 -18 3 -35 9 -38 14 -3 5 -18 9 -34 9 -16 0 -32 5 -35 10 -3 6
-19 10 -35 10 -16 0 -32 5 -35 10 -3 5 -15 10 -25 10 -10 0 -31 6 -47 14 -36
18 -156 56 -177 56 -9 0 -16 5 -16 10 0 6 -13 10 -29 10 -17 0 -33 5 -36 10
-3 5 -15 10 -26 10 -10 0 -27 4 -37 9 -45 22 -91 41 -127 52 -22 7 -44 17 -50
21 -5 4 -17 8 -27 8 -18 0 -28 4 -75 28 -13 7 -29 12 -37 12 -8 0 -36 11 -62
25 -26 14 -55 25 -65 25 -11 0 -19 5 -19 10 0 6 -9 10 -20 10 -11 0 -28 4 -38
9 -18 9 -63 28 -97 41 -40 15 -184 79 -207 91 -10 5 -25 9 -33 9 -8 0 -15 5
-15 10 0 6 -7 10 -15 10 -8 0 -23 4 -33 9 -9 5 -24 12 -32 15 -8 3 -22 10 -30
15 -39 22 -103 51 -116 51 -8 0 -14 5 -14 10 0 6 -6 10 -14 10 -8 0 -31 9 -53
19 -21 11 -45 21 -53 24 -15 4 -22 16 -59 97 -9 19 -19 37 -23 38 -5 2 -8 12
-8 22 0 10 -4 22 -10 25 -5 3 -10 17 -10 31 0 13 -4 24 -10 24 -5 0 -10 11
-10 25 0 14 -4 25 -8 25 -4 0 -14 21 -22 48 -12 40 -36 97 -71 164 -5 10 -9
29 -9 43 0 14 -4 25 -10 25 -5 0 -10 13 -10 28 0 15 -4 32 -8 38 -5 5 -17 35
-26 66 -10 32 -22 60 -27 64 -5 3 -9 16 -9 29 0 13 -4 27 -10 30 -5 3 -10 19
-10 35 0 16 -4 32 -10 35 -5 3 -10 19 -10 35 0 16 -4 31 -9 34 -5 3 -11 20
-14 38 -14 78 -20 104 -28 114 -5 6 -9 26 -11 45 -1 19 -6 37 -11 40 -5 4 -12
27 -14 53 -3 26 -10 49 -14 52 -5 3 -9 24 -9 48 0 23 -4 46 -9 52 -9 9 -16 51
-27 164 -3 30 -10 59 -15 64 -5 6 -9 44 -9 86 0 42 -5 81 -11 87 -28 28 -34
612 -7 785 12 82 26 189 34 258 3 30 10 59 15 64 5 6 9 27 9 47 0 21 4 41 10
44 6 3 10 21 10 40 0 19 4 37 10 40 6 3 10 19 10 35 0 16 4 31 9 34 8 5 23 48
53 151 6 22 15 44 20 49 4 6 8 20 8 32 0 13 5 26 10 29 6 3 10 15 10 26 0 10
4 19 9 19 5 0 12 13 16 30 4 16 11 32 16 35 5 4 9 15 9 26 0 10 5 19 10 19 6
0 10 9 10 20 0 11 5 20 10 20 6 0 10 8 11 18 0 9 9 31 20 47 10 17 31 54 45
83 15 28 30 52 35 52 5 0 9 9 9 20 0 11 5 20 10 20 6 0 10 5 10 10 0 6 25 46
55 89 30 43 55 84 55 90 0 6 4 11 8 11 4 0 15 12 24 28 10 15 31 43 47 62 17
19 31 39 31 44 0 5 8 16 18 25 10 9 25 26 34 39 62 91 469 500 581 585 21 16
48 38 61 50 29 26 43 37 126 102 36 27 67 53 68 57 2 5 8 8 13 8 5 0 17 7 26
15 68 55 310 225 323 225 6 0 10 5 10 10 0 6 7 10 15 10 8 0 15 5 15 10 0 6 5
10 11 10 7 0 34 16 60 35 27 19 54 35 59 35 6 0 10 5 10 10 0 6 7 10 15 10 8
0 15 4 15 9 0 5 8 11 18 15 21 7 67 34 109 64 17 12 36 22 42 22 6 0 11 3 11
8 0 4 14 13 31 21 18 8 59 31 93 52 33 22 78 47 99 56 20 10 37 21 37 25 0 5
9 8 19 8 11 0 21 3 23 8 2 4 21 16 43 28 106 55 150 79 155 84 3 3 30 18 60
34 30 15 78 40 105 56 28 15 58 29 67 29 9 1 18 5 20 9 2 4 28 20 58 35 30 16
69 37 85 47 17 10 38 19 48 19 9 1 17 6 17 11 0 6 6 10 12 10 17 0 156 69 164
81 3 5 14 9 25 9 10 0 19 5 19 10 0 6 6 10 14 10 7 0 52 20 98 44 46 24 93 48
103 53 67 35 109 53 121 53 8 0 14 5 14 10 0 6 6 10 13 10 18 0 75 28 82 41 4
5 15 9 26 9 10 0 19 5 19 10 0 6 6 10 13 10 10 0 151 65 197 91 53 29 116 59
127 59 7 0 13 5 13 10 0 6 8 10 18 11 9 0 40 14 67 29 57 33 96 52 143 71 17
8 32 17 32 21 0 5 8 8 18 9 9 0 40 13 67 29 28 15 97 53 155 82 238 124 317
166 355 189 22 13 54 31 70 39 17 8 32 17 35 20 3 3 26 16 53 29 26 13 52 30
58 38 6 7 18 13 25 13 8 0 14 4 14 8 0 5 16 14 35 22 19 8 35 17 35 22 0 4 4
8 10 8 13 0 124 71 128 82 2 4 8 8 14 8 11 0 277 180 324 219 16 14 45 37 64
51 18 14 38 30 44 35 6 6 38 32 71 60 82 67 300 288 356 361 95 123 229 324
229 345 0 5 5 9 10 9 6 0 10 5 10 10 0 6 11 29 26 51 43 69 64 109 64 124 0 8
3 15 8 15 8 0 32 49 32 67 0 7 4 13 10 13 5 0 12 11 16 25 3 14 10 25 15 25 5
0 9 9 9 20 0 11 5 20 10 20 6 0 10 11 10 25 0 14 5 25 10 25 6 0 10 7 10 15 0
8 4 23 9 33 8 16 15 32 42 100 6 15 17 41 24 57 8 17 24 62 36 100 12 39 25
78 30 87 5 10 9 31 9 47 0 17 5 33 10 36 6 3 10 21 10 40 0 19 4 36 9 39 4 3
11 29 13 57 3 28 9 54 14 58 5 3 10 33 12 66 2 33 7 64 13 69 12 13 12 517 -1
550 -5 14 -10 44 -12 68 -1 24 -8 54 -15 68 -7 14 -13 39 -13 57 0 17 -4 35
-10 38 -5 3 -10 16 -10 27 0 23 -17 81 -31 110 -5 10 -9 25 -9 33 0 8 -4 24
-10 35 -5 11 -14 29 -20 40 -5 11 -10 27 -10 35 0 8 -4 15 -10 15 -5 0 -10 7
-10 15 0 13 -68 153 -80 165 -3 3 -16 26 -29 53 -13 26 -30 52 -38 58 -7 6
-13 16 -13 21 0 5 -9 18 -20 30 -11 12 -20 28 -20 35 0 7 -4 13 -10 13 -5 0
-10 5 -10 10 0 6 -5 16 -10 23 -6 7 -41 50 -78 97 -96 121 -311 336 -441 440
-24 19 -49 41 -56 47 -8 7 -18 13 -24 13 -6 0 -11 4 -11 9 0 5 -20 22 -45 38
-25 15 -45 31 -45 36 0 4 -5 7 -10 7 -6 0 -20 9 -32 20 -12 11 -28 20 -35 20
-7 0 -13 4 -13 10 0 5 -15 17 -32 26 -18 9 -35 20 -38 23 -8 10 -63 42 -82 48
-10 3 -18 9 -18 14 0 5 -6 9 -14 9 -7 0 -19 6 -25 13 -6 8 -32 25 -58 38 -27
13 -50 26 -53 29 -3 3 -30 18 -60 34 -30 15 -77 40 -105 56 -27 15 -58 29 -67
29 -10 1 -18 6 -18 11 0 6 -7 10 -15 10 -8 0 -30 9 -50 20 -20 11 -42 20 -49
20 -7 0 -19 7 -26 15 -22 26 -56 18 -74 -17 -33 -67 -72 -134 -104 -180 -17
-26 -32 -49 -32 -53 0 -4 -13 -26 -30 -50 -16 -24 -30 -47 -30 -52 0 -4 -14
-23 -30 -42 -17 -18 -30 -37 -30 -41 0 -4 -8 -16 -17 -27 -10 -11 -36 -46 -58
-77 -22 -31 -53 -71 -68 -89 -15 -18 -34 -44 -42 -59 -8 -15 -21 -31 -28 -35
-6 -4 -32 -34 -57 -67 -74 -97 -486 -508 -590 -588 -19 -15 -47 -37 -61 -50
-15 -13 -41 -34 -60 -48 -18 -14 -47 -36 -63 -50 -97 -79 -399 -290 -416 -290
-6 0 -10 -4 -10 -10 0 -5 -7 -10 -15 -10 -8 0 -15 -4 -15 -10 0 -5 -4 -10 -10
-10 -5 0 -41 -20 -80 -45 -39 -25 -75 -45 -80 -45 -6 0 -10 -3 -10 -8 0 -4
-15 -13 -32 -21 -18 -8 -55 -28 -83 -46 -27 -17 -93 -52 -145 -79 -52 -26
-117 -60 -145 -76 -27 -15 -58 -29 -67 -29 -10 -1 -18 -5 -18 -11 0 -5 -6 -10
-12 -10 -7 0 -56 -21 -108 -46 -52 -26 -105 -51 -117 -55 -57 -22 -90 -36
-188 -79 -27 -12 -61 -27 -75 -32 -14 -6 -33 -14 -42 -19 -10 -5 -26 -9 -36
-9 -10 0 -22 -4 -27 -8 -6 -4 -28 -14 -50 -21 -36 -11 -82 -30 -127 -52 -10
-5 -27 -9 -37 -9 -11 0 -23 -4 -26 -10 -3 -5 -17 -10 -30 -10 -13 0 -27 -4
-30 -10 -3 -5 -19 -10 -35 -10 -16 0 -32 -5 -35 -10 -3 -6 -15 -10 -26 -10
-10 0 -27 -4 -37 -9 -28 -14 -85 -33 -115 -38 -15 -3 -30 -9 -33 -14 -3 -5
-18 -9 -34 -9 -16 0 -32 -4 -35 -10 -3 -5 -19 -10 -35 -10 -16 0 -31 -4 -34
-9 -3 -5 -22 -12 -41 -15 -19 -3 -51 -9 -70 -12 -19 -3 -38 -10 -41 -15 -3 -5
-20 -9 -38 -9 -18 0 -41 -7 -52 -15 -10 -8 -33 -15 -51 -15 -17 0 -35 -5 -38
-10 -3 -5 -24 -10 -45 -10 -21 0 -42 -4 -45 -10 -3 -5 -23 -10 -44 -10 -20 0
-41 -4 -46 -9 -6 -5 -28 -11 -50 -14 -22 -3 -60 -10 -85 -16 -25 -6 -72 -15
-104 -21 -33 -6 -64 -14 -70 -18 -11 -6 -82 -19 -166 -28 -25 -3 -54 -9 -65
-14 -11 -5 -42 -11 -70 -14 -27 -3 -81 -10 -120 -16 -38 -5 -101 -14 -140 -20
-38 -5 -115 -16 -170 -25 -149 -23 -371 -45 -670 -66 -196 -14 -1663 -14
-1860 0 -277 19 -534 45 -665 66 -52 9 -126 20 -165 25 -38 5 -100 14 -137 20
-38 5 -98 15 -135 20 -38 6 -88 13 -113 16 -25 3 -54 9 -65 14 -11 5 -38 11
-60 14 -22 2 -69 12 -105 21 -36 9 -83 18 -105 21 -22 3 -49 9 -60 14 -11 5
-36 11 -55 14 -19 3 -57 10 -85 16 -27 6 -67 14 -88 17 -20 3 -40 9 -43 14 -3
5 -20 9 -37 9 -18 1 -43 7 -57 15 -14 8 -37 14 -52 15 -15 0 -30 5 -33 10 -3
6 -21 10 -40 10 -19 0 -37 5 -40 10 -3 6 -19 10 -35 10 -16 0 -32 5 -35 10 -3
6 -19 10 -35 10 -16 0 -32 5 -35 10 -3 6 -17 10 -31 10 -13 0 -32 4 -42 9 -28
14 -85 33 -115 38 -15 3 -30 9 -33 14 -3 5 -18 9 -34 9 -16 0 -32 5 -35 10 -3
6 -17 10 -30 10 -13 0 -27 5 -30 10 -3 5 -17 10 -30 10 -13 0 -27 5 -30 10 -3
6 -17 10 -30 10 -13 0 -27 5 -30 10 -3 6 -13 10 -21 10 -8 0 -37 11 -66 25
-28 14 -58 25 -65 25 -7 0 -23 5 -36 12 -47 24 -57 28 -72 28 -8 0 -23 4 -33
9 -27 15 -132 61 -137 61 -3 0 -27 9 -53 21 -26 12 -56 25 -67 29 -11 4 -72
33 -135 63 -63 30 -144 69 -180 86 -36 17 -84 42 -108 56 -23 14 -49 25 -57
25 -8 0 -15 3 -15 8 0 4 -15 13 -32 21 -18 8 -55 28 -83 46 -27 17 -65 38 -82
46 -18 7 -33 16 -33 20 0 3 -16 11 -35 19 -19 8 -35 17 -35 22 0 4 -4 8 -10 8
-5 0 -32 16 -59 35 -26 19 -52 35 -56 35 -7 0 -327 219 -335 230 -3 3 -25 21
-50 38 -73 53 -184 139 -219 172 -9 8 -32 28 -51 44 -112 92 -295 268 -430
413 -82 89 -84 91 -185 213 -38 47 -73 87 -77 88 -5 2 -8 9 -8 15 0 7 -16 29
-35 51 -19 21 -35 41 -35 45 0 3 -14 22 -30 41 -16 19 -30 39 -30 43 0 4 -11
20 -25 35 -14 15 -25 32 -25 38 0 6 -9 19 -20 29 -11 10 -20 24 -20 32 0 7 -4
13 -10 13 -5 0 -10 4 -10 9 0 5 -18 38 -40 72 -22 35 -43 71 -47 79 -4 8 -9
17 -13 20 -3 3 -17 28 -30 55 -14 28 -28 52 -31 55 -3 3 -8 11 -10 18 -3 9
-22 3 -69 -19 -165 -79 -295 -144 -300 -149 -3 -3 -30 -18 -60 -33 -72 -36
-108 -57 -147 -84 -17 -13 -36 -23 -42 -23 -6 0 -11 -4 -11 -10 0 -5 -5 -10
-11 -10 -11 0 -246 -159 -295 -199 -16 -14 -45 -37 -63 -51 -19 -14 -43 -33
-55 -43 -120 -105 -160 -141 -216 -198 -113 -115 -250 -270 -250 -284 0 -4
-16 -25 -35 -48 -19 -22 -35 -46 -35 -53 0 -7 -4 -14 -9 -16 -20 -7 -141 -217
-141 -244 0 -8 -4 -14 -10 -14 -5 0 -10 -9 -10 -20 0 -11 -4 -20 -10 -20 -5 0
-10 -6 -10 -14 0 -7 -11 -34 -25 -60 -14 -26 -25 -56 -25 -66 0 -10 -4 -22
-10 -25 -5 -3 -10 -17 -10 -31 0 -13 -4 -24 -10 -24 -5 0 -10 -13 -10 -29 0
-17 -4 -33 -10 -36 -5 -3 -10 -21 -10 -40 0 -19 -4 -37 -10 -40 -5 -3 -10 -19
-10 -35 0 -16 -5 -41 -11 -57 -6 -15 -14 -55 -16 -88 -3 -33 -9 -64 -14 -69
-13 -14 -12 -463 1 -471 6 -3 10 -30 10 -59 0 -30 7 -73 15 -96 8 -23 15 -58
15 -76 0 -19 5 -34 10 -34 6 0 10 -18 10 -39 0 -22 5 -43 10 -46 6 -3 10 -16
10 -27 0 -12 5 -35 10 -52 6 -17 21 -66 35 -109 14 -42 29 -86 35 -97 5 -11
15 -29 20 -40 6 -11 10 -29 10 -39 0 -11 5 -23 10 -26 6 -3 10 -15 10 -26 0
-10 5 -19 10 -19 6 0 10 -7 10 -15 0 -8 4 -23 9 -33 37 -71 81 -167 81 -179 0
-7 4 -13 8 -13 5 0 19 -24 32 -52 13 -29 26 -55 29 -58 8 -7 26 -37 58 -97 15
-29 30 -53 34 -53 4 0 9 -8 12 -17 7 -19 26 -50 101 -164 27 -41 52 -76 56
-79 4 -3 11 -12 16 -21 35 -62 214 -254 324 -347 30 -26 68 -61 85 -77 16 -17
46 -41 65 -55 38 -26 43 -31 106 -82 59 -48 449 -308 463 -308 6 0 11 -4 11
-9 0 -5 8 -11 18 -15 19 -6 62 -31 107 -61 17 -12 44 -27 60 -35 17 -8 32 -17
35 -20 3 -3 19 -12 35 -20 17 -8 46 -24 66 -37 20 -12 83 -46 140 -76 57 -30
124 -65 149 -78 25 -13 47 -27 48 -31 2 -5 10 -8 17 -8 7 0 39 -14 71 -31 167
-89 228 -119 240 -119 8 0 14 -4 14 -10 0 -5 8 -10 18 -10 10 0 22 -4 27 -9
19 -16 106 -61 120 -61 8 0 15 -4 15 -10 0 -5 6 -10 13 -10 11 0 71 -28 127
-59 49 -28 145 -71 156 -71 8 0 14 -4 14 -10 0 -5 6 -10 13 -10 14 0 50 -18
102 -50 17 -10 38 -19 48 -19 9 -1 17 -5 17 -11 0 -5 6 -10 14 -10 12 0 44
-14 118 -51 10 -5 47 -25 84 -44 36 -19 72 -35 80 -35 8 0 14 -4 14 -10 0 -5
9 -10 20 -10 11 0 20 -4 20 -10 0 -5 9 -10 19 -10 11 0 22 -4 25 -9 8 -12 147
-81 164 -81 6 0 12 -4 12 -10 0 -5 9 -10 20 -10 11 0 20 -4 20 -10 0 -5 9 -10
19 -10 11 0 22 -4 26 -9 3 -5 60 -37 128 -71 158 -80 201 -103 205 -112 2 -5
9 -8 16 -8 18 0 66 -24 66 -32 0 -5 9 -8 20 -8 11 0 20 -4 20 -9 0 -5 8 -11
18 -15 9 -3 44 -22 77 -41 33 -19 78 -44 100 -55 22 -11 58 -32 80 -46 22 -14
48 -27 58 -31 9 -3 17 -8 17 -12 0 -4 16 -13 35 -21 19 -8 35 -17 35 -22 0 -4
5 -8 12 -8 6 0 19 -6 27 -14 20 -18 101 -65 124 -73 9 -3 17 -9 17 -14 0 -5 5
-9 11 -9 6 0 33 -16 59 -35 26 -19 53 -35 59 -35 6 0 11 -4 11 -10 0 -5 7 -10
15 -10 8 0 15 -4 15 -10 0 -5 5 -10 11 -10 12 0 172 -110 177 -122 2 -4 10 -8
18 -8 8 0 14 -4 14 -10 0 -5 5 -10 10 -10 6 0 16 -5 23 -10 7 -6 37 -29 67
-51 30 -22 62 -46 70 -52 8 -7 44 -35 80 -62 36 -28 67 -53 70 -56 3 -3 15
-12 28 -21 12 -8 42 -33 65 -54 23 -22 69 -61 102 -89 76 -63 372 -358 410
-409 16 -21 42 -52 58 -70 17 -17 42 -47 56 -66 14 -19 33 -43 42 -53 9 -10
34 -43 55 -75 21 -31 41 -59 45 -62 6 -5 38 -53 87 -129 13 -20 25 -44 29 -54
3 -9 9 -17 14 -17 5 0 9 -9 9 -19 0 -11 4 -21 8 -23 10 -3 16 -15 80 -140 23
-46 42 -89 42 -95 0 -6 7 -16 15 -23 8 -7 15 -21 15 -31 0 -11 5 -19 10 -19 6
0 10 -9 10 -19 0 -11 5 -23 10 -26 6 -3 10 -16 10 -29 0 -12 4 -26 8 -32 5 -5
15 -29 22 -54 8 -25 17 -49 20 -55 4 -5 10 -27 14 -47 4 -21 11 -38 16 -38 6
0 10 -16 10 -35 0 -19 5 -35 10 -35 6 0 10 -15 10 -34 0 -19 5 -38 10 -41 6
-3 10 -23 10 -44 0 -20 4 -41 9 -47 5 -5 12 -29 15 -54 11 -88 24 -176 34
-220 19 -90 35 -366 29 -510 -8 -208 -27 -414 -38 -418 -5 -2 -9 -34 -9 -71 0
-37 -4 -71 -9 -77 -5 -5 -12 -34 -14 -64 -3 -30 -11 -80 -17 -110 -6 -30 -13
-71 -16 -90 -3 -19 -9 -44 -14 -55 -5 -11 -11 -33 -14 -50 -5 -34 -25 -110
-36 -140 -20 -56 -30 -94 -30 -118 0 -15 -4 -27 -10 -27 -5 0 -10 -13 -10 -29
0 -17 -4 -33 -10 -36 -6 -3 -10 -19 -10 -35 0 -16 -4 -32 -10 -35 -5 -3 -10
-15 -10 -25 0 -10 -8 -33 -17 -52 -31 -62 -33 -68 -33 -92 0 -14 -4 -28 -10
-31 -5 -3 -10 -17 -10 -31 0 -13 -4 -24 -10 -24 -5 0 -10 -11 -10 -24 0 -14
-4 -28 -10 -31 -5 -3 -10 -17 -10 -31 0 -13 -4 -24 -10 -24 -5 0 -10 -5 -10
-11 0 -11 -23 -67 -41 -101 -5 -10 -9 -27 -9 -38 0 -11 -4 -20 -10 -20 -5 0
-10 -11 -10 -25 0 -14 -4 -25 -10 -25 -5 0 -10 -9 -10 -19 0 -11 -4 -23 -10
-26 -5 -3 -10 -15 -10 -25 0 -10 -7 -25 -15 -34 -8 -8 -15 -18 -15 -22 0 -4
-7 -24 -16 -44 -16 -35 -67 -70 -102 -70 -7 0 -12 -4 -12 -10 0 -5 -6 -10 -14
-10 -8 0 -31 -8 -53 -19 -106 -52 -149 -71 -161 -71 -6 0 -12 -4 -12 -10 0 -5
-7 -10 -15 -10 -8 0 -23 -4 -33 -9 -9 -5 -37 -18 -62 -29 -79 -35 -164 -74
-182 -83 -10 -5 -24 -9 -33 -9 -8 0 -29 -8 -47 -18 -18 -9 -51 -23 -73 -30
-22 -8 -53 -19 -70 -27 -16 -7 -42 -18 -57 -24 -68 -27 -84 -34 -100 -42 -10
-5 -27 -9 -37 -9 -11 0 -23 -4 -26 -10 -3 -5 -15 -10 -26 -10 -19 0 -26 -2
-87 -33 -19 -9 -42 -17 -52 -17 -10 0 -22 -5 -25 -10 -3 -6 -17 -10 -30 -10
-13 0 -27 -4 -30 -10 -3 -5 -17 -10 -30 -10 -13 0 -27 -4 -30 -10 -3 -5 -17
-10 -30 -10 -13 0 -27 -4 -30 -10 -3 -5 -15 -10 -26 -10 -10 0 -27 -4 -37 -9
-28 -14 -85 -33 -115 -38 -15 -3 -30 -9 -33 -14 -3 -5 -16 -9 -29 -9 -13 0
-26 -4 -29 -9 -3 -5 -22 -12 -41 -15 -19 -3 -51 -9 -70 -12 -19 -3 -38 -10
-41 -15 -3 -5 -18 -9 -34 -9 -16 0 -32 -4 -35 -10 -3 -5 -16 -10 -28 -10 -12
0 -35 -7 -51 -15 -15 -8 -41 -15 -57 -15 -15 0 -31 -4 -34 -10 -3 -5 -21 -10
-40 -10 -19 0 -37 -4 -40 -10 -3 -5 -21 -10 -40 -10 -19 0 -36 -4 -39 -9 -3
-5 -23 -11 -43 -15 -93 -14 -119 -19 -128 -26 -5 -4 -30 -11 -55 -15 -25 -4
-49 -11 -55 -15 -10 -7 -44 -14 -145 -26 -25 -3 -49 -10 -55 -15 -5 -5 -27 -9
-50 -9 -23 0 -45 -4 -50 -9 -6 -5 -32 -12 -60 -15 -84 -9 -169 -23 -185 -29
-47 -20 -537 -83 -720 -93 -52 -2 -104 -9 -115 -14 -11 -5 -78 -11 -150 -14
-71 -2 -161 -9 -200 -14 -94 -15 -1037 -15 -1130 0 -38 5 -131 12 -205 15 -74
2 -139 8 -145 14 -5 5 -54 9 -110 9 -56 0 -105 4 -110 9 -6 5 -48 12 -95 15
-197 14 -226 17 -245 26 -11 5 -45 11 -75 13 -78 6 -191 25 -215 37 -11 5 -42
11 -70 14 -27 3 -77 10 -110 16 -33 6 -80 13 -105 16 -25 3 -49 10 -55 15 -5
5 -30 9 -55 9 -25 0 -50 4 -55 9 -6 5 -28 11 -50 14 -53 7 -141 30 -151 40 -4
4 -24 7 -45 7 -21 0 -41 5 -44 10 -3 5 -24 10 -45 10 -21 0 -42 5 -45 10 -3 5
-21 10 -40 10 -19 0 -36 4 -39 9 -3 5 -23 11 -43 14 -72 11 -108 20 -121 30
-12 9 -63 23 -130 34 -18 3 -35 9 -38 14 -3 5 -18 9 -34 9 -16 0 -32 5 -35 10
-3 6 -19 10 -35 10 -16 0 -32 5 -35 10 -3 6 -19 10 -35 10 -16 0 -32 5 -35 10
-3 6 -15 10 -27 10 -11 0 -32 6 -46 14 -15 8 -47 19 -72 26 -25 7 -53 16 -62
21 -10 5 -25 9 -33 9 -8 0 -23 4 -33 9 -26 13 -86 31 -105 31 -9 0 -17 5 -17
10 0 6 -10 10 -23 10 -13 0 -32 7 -43 15 -10 8 -27 15 -37 15 -9 0 -27 5 -40
12 -48 24 -57 28 -76 28 -11 0 -23 5 -26 10 -3 6 -15 10 -26 10 -10 0 -28 4
-39 10 -11 5 -29 14 -40 20 -11 5 -24 10 -30 10 -6 0 -33 11 -62 25 -28 14
-58 25 -65 25 -7 0 -21 4 -31 9 -16 8 -36 17 -94 40 -13 5 -45 19 -73 31 -67
30 -115 50 -145 62 -14 6 -33 14 -42 19 -10 5 -25 9 -33 9 -8 0 -15 5 -15 10
0 6 -6 10 -12 10 -12 0 -55 19 -161 71 -22 11 -45 19 -53 19 -8 0 -14 5 -14
10 0 6 -11 10 -24 10 -13 0 -26 3 -28 8 -4 10 -110 62 -125 62 -7 0 -13 5 -13
10 0 6 -9 10 -20 10 -11 0 -20 5 -20 10 0 6 -9 10 -19 10 -11 0 -23 5 -26 10
-3 6 -15 10 -25 10 -10 0 -20 3 -22 8 -1 4 -39 25 -83 47 -44 22 -81 43 -83
48 -2 4 -10 7 -17 7 -8 0 -38 13 -67 30 -29 16 -78 42 -108 57 -30 15 -56 31
-58 35 -2 4 -12 8 -23 8 -10 0 -19 3 -19 8 0 4 -10 12 -23 18 -12 6 -53 28
-92 49 -38 21 -88 47 -110 59 -22 12 -54 31 -72 44 -17 12 -36 22 -42 22 -6 0
-11 5 -11 10 0 6 -9 10 -20 10 -11 0 -20 4 -20 8 0 5 -16 14 -35 22 -19 8 -35
17 -35 22 0 4 -5 8 -12 8 -6 0 -19 6 -27 14 -9 8 -33 23 -53 35 -21 12 -55 30
-75 42 -21 12 -52 32 -70 45 -17 13 -35 24 -38 24 -4 0 -26 14 -50 30 -24 17
-48 30 -54 30 -6 0 -11 5 -11 10 0 6 -5 10 -11 10 -6 0 -33 16 -59 35 -26 19
-53 35 -59 35 -6 0 -11 5 -11 10 0 6 -5 10 -11 10 -6 0 -52 29 -104 65 -51 36
-98 65 -104 65 -6 0 -11 5 -11 10 0 6 -7 10 -15 10 -8 0 -15 5 -15 10 0 6 -7
10 -15 10 -8 0 -15 4 -15 10 0 5 -14 17 -32 26 -17 9 -40 25 -51 35 -12 10
-27 19 -34 19 -7 0 -13 5 -13 10 0 6 -5 10 -11 10 -6 0 -17 7 -26 16 -9 8 -55
42 -104 74 -48 33 -91 64 -94 70 -4 6 -17 16 -28 21 -12 5 -51 32 -87 59 -36
27 -85 64 -110 82 -25 17 -46 35 -48 40 -2 4 -10 8 -17 8 -7 0 -15 4 -17 8 -1
5 -34 32 -73 61 -38 29 -90 69 -114 89 -24 20 -60 48 -80 61 -20 14 -38 27
-41 31 -3 3 -39 33 -80 65 -99 78 -109 86 -135 110 -13 12 -38 32 -56 45 -19
14 -52 41 -74 60 -22 20 -65 56 -95 80 -30 25 -57 47 -60 51 -3 3 -36 32 -75
65 -38 32 -79 68 -90 79 -11 11 -45 41 -75 65 -30 25 -74 64 -97 88 -24 23
-45 42 -47 42 -3 0 -16 10 -28 23 -13 12 -53 48 -88 80 -247 224 -793 762
-1035 1021 -72 76 -152 161 -179 190 -27 28 -69 75 -95 105 -25 30 -64 73 -86
95 -23 23 -61 66 -85 96 -25 30 -58 69 -75 85 -16 17 -50 55 -74 85 -25 30
-50 60 -56 65 -13 12 -137 158 -253 299 -46 56 -91 110 -100 121 -10 11 -31
38 -47 60 -16 22 -37 47 -45 55 -9 8 -29 33 -45 55 -17 22 -37 47 -45 55 -9 8
-27 31 -40 50 -13 19 -37 51 -54 71 -31 37 -61 74 -106 134 -59 78 -91 121
-103 135 -7 9 -25 33 -42 55 -16 22 -37 49 -47 59 -10 11 -18 25 -18 32 0 7
-4 14 -8 16 -4 2 -21 21 -37 43 -17 22 -35 46 -42 55 -22 27 -77 102 -118 160
-48 69 -69 98 -112 156 -18 24 -33 48 -33 53 0 5 -4 11 -8 13 -5 2 -20 19 -33
39 -68 103 -169 248 -181 260 -7 8 -19 26 -27 42 -8 15 -18 27 -23 27 -4 0 -8
5 -8 12 0 6 -11 26 -25 44 -14 18 -25 37 -25 42 0 5 -7 15 -15 22 -9 7 -23 28
-31 46 -9 19 -20 34 -25 34 -5 0 -9 6 -9 13 0 7 -10 24 -22 37 -13 14 -28 34
-34 45 -22 43 -40 70 -56 89 -10 11 -18 23 -18 27 0 7 -80 133 -100 156 -5 7
-10 15 -10 19 0 4 -15 27 -33 53 -17 25 -38 58 -46 73 -8 16 -18 28 -23 28 -4
0 -8 9 -8 20 0 11 -4 20 -10 20 -5 0 -10 5 -10 11 0 6 -10 25 -22 42 -13 18
-28 41 -34 52 -6 11 -37 62 -68 113 -31 51 -56 97 -56 102 0 6 -4 10 -9 10 -5
0 -20 24 -35 53 -38 76 -59 111 -73 120 -7 4 -13 17 -13 27 0 11 -4 20 -9 20
-5 0 -11 8 -14 18 -8 23 -40 76 -49 80 -5 2 -8 12 -8 22 0 9 -6 22 -13 28 -7
6 -24 33 -37 61 -14 28 -28 51 -32 51 -5 0 -8 9 -8 20 0 11 -4 20 -10 20 -5 0
-10 6 -11 13 0 6 -13 32 -29 57 -16 25 -45 79 -66 120 -21 41 -45 86 -54 100
-31 47 -90 162 -90 176 0 8 -3 14 -7 14 -5 0 -21 28 -38 63 -16 34 -33 64 -37
65 -5 2 -8 12 -8 23 0 10 -4 19 -10 19 -5 0 -10 7 -10 15 0 8 -8 29 -18 47
-10 18 -31 55 -45 81 -15 26 -27 54 -27 62 0 8 -4 15 -10 15 -5 0 -10 9 -10
20 0 11 -4 20 -10 20 -5 0 -10 7 -10 15 0 14 -45 101 -61 119 -5 6 -9 18 -9
28 0 10 -4 18 -10 18 -5 0 -10 9 -10 20 0 11 -4 20 -10 20 -5 0 -10 9 -10 20
0 11 -4 20 -10 20 -5 0 -10 7 -10 15 0 8 -9 30 -20 50 -11 20 -20 42 -20 49 0
8 -4 16 -9 18 -8 3 -61 112 -61 126 0 13 -51 111 -60 117 -5 3 -7 12 -4 19 3
7 -2 19 -11 26 -8 7 -15 21 -15 31 0 10 -5 21 -10 24 -5 3 -10 15 -10 26 0 10
-4 19 -10 19 -5 0 -10 11 -10 25 0 14 -4 25 -10 25 -5 0 -10 9 -10 20 0 11 -4
20 -10 20 -5 0 -10 9 -10 19 0 11 -4 22 -9 26 -5 3 -12 19 -16 35 -4 17 -11
30 -16 30 -5 0 -9 9 -9 19 0 11 -4 23 -10 26 -5 3 -10 17 -10 30 0 13 -4 27
-10 30 -5 3 -10 17 -10 30 0 13 -4 27 -10 30 -5 3 -10 16 -10 28 0 12 -7 30
-15 40 -7 11 -11 25 -8 33 3 8 0 14 -5 14 -6 0 -14 16 -18 35 -3 19 -10 38
-15 41 -5 3 -9 16 -9 29 0 13 -4 27 -10 30 -5 3 -10 19 -10 36 0 16 -4 29 -10
29 -5 0 -10 13 -10 29 0 17 -4 33 -10 36 -5 3 -10 18 -10 33 0 15 -7 37 -15
48 -8 12 -12 24 -8 27 3 4 -2 18 -11 31 -9 14 -16 36 -16 50 0 14 -5 28 -10
31 -5 3 -10 19 -10 36 0 16 -4 29 -9 29 -5 0 -12 17 -15 38 -16 90 -19 102
-27 108 -5 3 -9 18 -9 34 0 16 -6 41 -14 57 -20 41 -36 96 -36 126 0 14 -4 29
-10 32 -5 3 -10 21 -10 40 0 19 -4 37 -10 40 -5 3 -10 21 -10 40 0 19 -4 37
-10 40 -5 3 -10 24 -10 45 0 21 -4 42 -10 45 -5 3 -10 23 -10 44 0 20 -5 42
-12 49 -10 10 -22 59 -34 142 -3 19 -9 44 -14 55 -5 11 -11 38 -15 60 -3 22
-10 63 -15 90 -5 28 -13 73 -18 100 -4 28 -11 55 -14 61 -4 6 -8 28 -9 50 -1
21 -7 47 -12 58 -5 10 -13 46 -19 80 -21 130 -29 183 -34 231 -3 28 -9 59 -14
70 -5 11 -11 47 -14 80 -12 133 -21 211 -29 222 -4 6 -9 41 -11 77 -3 36 -7
70 -11 75 -7 13 -24 172 -31 291 -3 47 -9 94 -14 105 -5 11 -12 65 -15 120 -2
55 -9 165 -15 245 -6 80 -13 222 -15 315 -3 106 -10 179 -18 194 -18 35 -18
1852 1 1859 9 3 12 53 12 207 0 125 4 206 10 210 6 4 10 68 10 160 0 92 4 156
10 160 6 4 10 62 10 140 0 74 4 136 9 139 4 3 11 61 15 128 14 244 44 556 56
583 5 11 12 58 14 105 9 155 21 275 28 285 3 6 7 46 9 90 1 44 6 85 10 90 4 6
9 42 12 80 10 134 27 269 34 274 5 3 9 37 11 75 2 38 7 78 13 87 5 10 9 49 9
86 0 38 4 73 9 79 5 5 12 41 15 79 3 39 10 104 16 145 16 111 28 206 38 290 5
41 14 88 21 103 6 16 11 52 11 81 0 28 4 56 9 62 5 5 12 38 15 74 3 36 10 94
15 130 5 36 15 101 21 145 6 44 15 107 20 140 5 33 14 93 19 134 6 41 15 79
21 85 5 5 10 38 10 73 0 35 4 63 9 63 5 0 11 30 15 68 5 63 10 103 36 267 6
39 15 97 20 130 19 136 31 198 40 215 6 10 10 41 10 67 0 27 4 53 9 59 5 5 12
36 15 69 3 33 10 87 15 120 5 33 14 94 20 135 6 41 15 98 20 125 5 28 15 89
22 138 7 48 16 87 21 87 4 0 8 29 8 65 0 37 4 65 10 65 6 0 10 26 10 58 0 32
4 62 9 68 5 5 11 36 15 69 3 33 10 89 15 125 6 36 15 98 20 139 6 40 14 79 19
85 4 6 9 36 11 66 1 30 6 59 10 65 5 5 11 37 15 70 7 66 13 115 55 395 5 36
14 99 19 141 5 41 14 85 21 97 6 11 11 48 11 81 0 34 4 61 9 61 5 0 11 30 15
68 6 69 16 148 36 287 16 114 27 197 39 299 5 49 14 93 20 99 6 6 11 44 11 83
0 40 5 76 10 79 5 3 10 44 10 91 0 46 4 84 9 84 5 0 11 33 14 73 3 39 11 115
17 167 22 186 28 246 39 353 5 60 14 114 20 120 9 11 12 48 26 297 3 52 10
104 15 115 5 11 11 65 14 120 3 55 10 152 15 215 6 63 15 178 21 255 5 77 17
226 26 330 28 335 35 603 35 1420 0 807 -6 1048 -35 1340 -24 238 -37 392 -42
470 -3 39 -9 79 -14 90 -5 11 -12 58 -15 105 -10 162 -16 215 -25 235 -5 11
-11 49 -14 85 -2 36 -12 99 -20 140 -9 41 -21 107 -27 145 -6 39 -15 97 -20
130 -5 33 -12 78 -15 100 -3 22 -9 49 -14 60 -5 11 -11 40 -14 65 -14 120 -19
145 -27 150 -4 3 -13 32 -19 65 -6 33 -15 79 -20 103 -6 23 -15 63 -21 90 -6
26 -13 66 -16 90 -3 23 -9 42 -14 42 -5 0 -9 18 -9 39 0 22 -4 43 -10 46 -5 3
-10 19 -10 34 0 16 -7 42 -15 57 -8 16 -15 41 -15 56 0 15 -4 29 -9 32 -5 3
-11 20 -14 38 -9 54 -18 92 -27 113 -9 21 -18 59 -27 113 -3 18 -9 35 -14 38
-5 3 -9 17 -9 32 0 15 -7 36 -15 46 -8 11 -15 32 -15 48 0 15 -4 28 -10 28 -5
0 -10 14 -10 30 0 17 -4 30 -10 30 -5 0 -10 16 -10 35 0 19 -4 35 -10 35 -5 0
-10 13 -10 29 0 17 -4 33 -10 36 -5 3 -10 19 -10 35 0 15 -5 30 -11 32 -6 2
-11 16 -11 31 0 15 -4 27 -9 27 -4 0 -11 16 -15 35 -3 19 -10 38 -15 41 -5 3
-9 16 -9 29 0 13 -4 27 -10 30 -5 3 -10 16 -10 29 0 12 -3 26 -7 30 -10 9 -33
78 -33 99 0 9 -4 17 -8 17 -4 0 -16 26 -27 58 -10 31 -22 61 -27 66 -4 6 -8
18 -8 28 0 10 -4 18 -10 18 -5 0 -10 13 -10 29 0 17 -4 33 -10 36 -5 3 -10 15
-10 26 0 10 -4 19 -10 19 -5 0 -10 11 -10 24 0 13 -7 29 -15 36 -9 7 -14 19
-11 26 3 7 -2 18 -10 24 -8 7 -14 21 -14 31 0 10 -4 21 -10 24 -5 3 -10 17
-10 31 0 13 -4 24 -10 24 -5 0 -10 9 -10 20 0 11 -4 20 -10 20 -5 0 -10 9 -10
19 0 11 -20 57 -43 104 -24 46 -50 105 -58 130 -7 26 -17 47 -21 47 -4 0 -8 6
-8 13 0 14 -18 50 -50 102 -10 17 -19 38 -19 48 -1 9 -5 17 -11 17 -5 0 -10 7
-10 15 0 8 -9 30 -20 50 -11 20 -20 42 -20 50 0 8 -4 15 -10 15 -5 0 -10 9
-10 20 0 11 -3 20 -7 20 -11 0 -43 58 -43 76 0 8 -4 14 -10 14 -5 0 -10 9 -10
20 0 11 -4 20 -10 20 -5 0 -10 9 -10 20 0 11 -4 20 -10 20 -5 0 -10 6 -10 14
0 16 -70 139 -82 144 -5 2 -8 12 -8 23 0 10 -4 19 -10 19 -5 0 -10 9 -10 20 0
11 -4 20 -10 20 -5 0 -10 6 -10 14 0 8 -16 38 -35 67 -19 30 -35 59 -35 66 0
7 -4 13 -9 13 -5 0 -11 8 -14 18 -4 9 -18 35 -32 57 -13 22 -28 47 -32 55 -3
8 -18 33 -32 55 -30 48 -46 73 -89 148 -19 31 -38 57 -43 57 -5 0 -9 9 -9 20
0 11 -4 20 -8 20 -5 0 -19 20 -32 45 -13 25 -27 45 -32 45 -4 0 -8 5 -8 11 0
6 -11 25 -25 43 -14 18 -25 38 -25 44 0 6 -4 12 -9 14 -7 2 -38 47 -116 167
-5 8 -18 24 -27 35 -10 11 -18 25 -18 31 0 6 -11 22 -25 35 -14 13 -25 27 -25
32 0 4 -15 27 -32 51 -18 24 -41 54 -51 68 -64 90 -80 109 -88 109 -5 0 -9 18
-9 40 0 48 7 49 75 16 28 -13 68 -32 90 -41 22 -10 53 -23 69 -31 16 -8 37
-14 48 -14 10 0 18 -4 18 -10 0 -5 7 -10 15 -10 8 0 23 -4 33 -10 15 -8 47
-22 122 -52 14 -6 33 -14 42 -19 10 -5 25 -9 33 -9 8 0 23 -4 33 -9 9 -5 28
-13 42 -19 14 -5 41 -17 60 -25 19 -8 53 -21 75 -28 22 -7 44 -17 50 -21 5 -4
17 -8 27 -8 10 0 27 -4 38 -10 11 -5 29 -14 40 -20 11 -5 27 -10 35 -10 8 0
23 -4 33 -9 9 -4 33 -14 52 -20 19 -7 55 -19 80 -28 25 -9 53 -20 62 -24 10
-5 27 -9 37 -9 11 0 23 -4 26 -10 3 -5 19 -10 35 -10 16 0 32 -4 35 -10 3 -5
15 -10 26 -10 10 0 27 -4 37 -9 28 -14 85 -33 115 -38 15 -3 30 -9 33 -14 3
-5 20 -9 39 -9 19 0 37 -4 40 -10 3 -5 19 -10 35 -10 16 0 32 -4 35 -10 3 -5
19 -10 35 -10 16 0 32 -4 35 -10 3 -5 21 -10 40 -10 19 0 37 -4 40 -10 3 -5
17 -10 31 -10 14 0 35 -5 47 -12 12 -6 40 -15 62 -20 22 -5 60 -14 85 -19 25
-6 62 -13 83 -16 20 -3 40 -9 43 -14 3 -5 23 -9 44 -9 21 0 42 -4 45 -10 3 -5
26 -10 50 -10 24 0 46 -4 49 -9 3 -4 29 -11 58 -15 29 -4 57 -11 63 -16 9 -7
38 -12 153 -26 26 -3 56 -9 67 -14 19 -9 67 -15 190 -26 33 -3 69 -9 80 -14
11 -5 47 -11 80 -14 33 -2 112 -12 175 -21 211 -31 361 -37 935 -37 567 0 700
6 910 36 61 9 142 21 180 27 39 5 99 14 135 20 36 5 88 12 115 15 28 3 59 9
70 14 11 5 40 12 65 15 25 3 65 8 90 11 25 4 50 10 56 15 6 5 32 12 58 15 26
4 49 11 52 15 3 5 23 9 44 9 21 0 41 4 44 9 3 5 23 11 43 14 21 3 56 10 78 16
22 5 54 13 70 16 17 4 39 10 50 15 11 5 31 11 45 13 28 6 86 25 112 38 10 5
29 9 42 9 14 0 28 5 31 10 3 6 19 10 35 10 16 0 32 5 35 10 3 6 19 10 35 10
16 0 32 5 35 10 3 6 17 10 30 10 13 0 27 5 30 10 3 6 15 10 27 10 11 0 34 7
51 16 60 32 67 34 92 34 14 0 25 5 25 10 0 6 11 10 24 10 14 0 28 5 31 10 3 6
17 10 30 10 13 0 27 5 30 10 3 6 13 10 21 10 14 0 102 37 146 61 10 5 25 9 33
9 8 0 23 4 33 9 9 5 28 13 42 18 62 25 171 73 212 94 10 5 25 9 33 9 8 0 15 5
15 10 0 6 7 10 15 10 8 0 23 4 33 9 22 12 199 95 282 133 36 17 72 34 80 39 8
4 69 36 135 69 199 102 334 174 430 230 22 13 69 39 105 58 36 19 70 38 75 42
10 8 38 24 135 78 25 14 56 33 70 42 23 17 43 28 138 81 20 12 44 27 53 35 8
8 21 14 27 14 7 0 12 4 12 9 0 5 8 11 18 14 23 8 100 54 139 83 17 13 36 24
42 24 6 0 11 5 11 10 0 6 4 10 10 10 5 0 131 80 280 178 149 97 280 181 291
187 10 5 19 13 19 17 0 5 7 8 15 8 8 0 15 3 15 8 0 4 28 25 63 47 34 22 64 43
65 47 2 5 8 8 13 8 6 0 19 9 31 20 12 11 28 20 35 20 7 0 13 5 13 10 0 6 5 10
11 10 10 0 29 13 86 60 7 6 17 10 23 10 5 0 10 5 10 10 0 6 7 10 15 10 8 0 15
5 15 10 0 6 6 10 14 10 8 0 16 4 18 9 2 4 84 64 183 132 99 68 189 131 199
141 11 10 23 18 27 18 4 0 14 6 21 13 7 7 47 36 89 65 42 28 83 58 92 66 9 9
20 16 26 16 6 0 11 5 11 10 0 6 6 10 14 10 8 0 16 4 18 8 2 5 53 43 113 85 61
43 160 113 220 157 61 44 153 110 205 146 52 37 97 70 100 73 3 4 50 38 105
75 55 38 102 73 103 78 2 4 10 8 17 8 7 0 15 4 17 8 2 4 48 39 103 77 55 38
102 73 103 77 2 4 9 8 17 8 7 0 19 7 26 16 8 9 59 47 115 85 55 37 107 73 115
81 8 7 26 19 42 27 15 8 27 18 27 23 0 4 6 8 13 8 7 0 32 16 54 35 23 19 44
35 48 35 3 0 15 8 26 18 10 11 32 25 47 33 15 8 29 17 32 20 15 20 848 579
861 579 5 0 9 5 9 10 0 6 5 10 11 10 6 0 46 25 89 55 43 30 81 55 84 55 9 0
150 94 154 103 2 4 8 7 14 7 5 0 29 14 53 30 24 17 47 30 51 30 4 0 21 11 39
24 39 30 114 75 138 83 9 3 17 9 17 14 0 5 5 9 12 9 6 0 26 11 44 25 18 14 36
25 39 25 4 0 26 14 50 30 24 17 46 30 49 30 3 0 36 19 73 43 38 23 82 49 98
57 17 8 32 17 35 20 3 3 19 12 35 20 17 8 44 25 61 37 17 13 36 23 42 23 7 0
12 3 12 8 0 4 17 15 38 25 20 9 55 28 77 41 22 14 65 37 95 53 30 15 57 30 60
33 3 3 30 18 60 33 57 29 91 48 100 57 12 12 51 30 64 30 8 0 16 3 18 8 2 4
21 16 43 28 119 62 150 80 153 87 2 4 10 7 17 7 7 0 39 14 71 31 137 74 370
189 382 189 6 0 12 5 12 10 0 6 6 10 14 10 8 0 31 9 53 19 21 11 54 26 73 36
19 9 49 24 65 35 17 10 38 19 48 19 9 1 17 6 17 11 0 6 11 10 25 10 14 0 25 5
25 10 0 6 6 10 13 10 8 0 27 6 43 14 16 8 40 20 54 25 14 6 32 15 40 19 41 23
61 32 75 32 8 0 15 5 15 10 0 6 7 10 15 10 8 0 23 4 33 9 9 5 28 13 42 19 14
5 52 22 85 37 33 15 71 32 85 38 14 5 36 14 50 20 14 5 36 14 50 20 53 21 76
30 105 42 17 7 42 18 58 24 15 6 39 16 55 22 15 7 38 16 52 22 14 5 33 13 42
18 10 5 25 9 33 9 8 0 23 4 33 9 9 5 35 17 57 26 22 10 48 22 57 26 10 5 25 9
33 9 8 0 24 5 35 10 11 6 29 15 40 20 11 6 29 10 39 10 11 0 23 5 26 10 3 6
15 10 26 10 10 0 27 4 37 9 9 5 37 17 62 26 25 9 53 21 62 26 10 5 27 9 37 9
11 0 23 5 26 10 3 6 19 10 35 10 16 0 32 5 35 10 3 6 17 10 30 10 13 0 27 5
30 10 3 6 17 10 30 10 13 0 27 5 30 10 3 6 16 10 29 10 12 0 31 7 42 15 10 8
31 15 46 15 15 0 30 5 33 10 3 6 19 10 36 10 16 0 29 5 29 10 0 6 13 10 29 10
17 0 33 5 36 10 3 6 17 10 31 10 13 0 32 4 42 9 30 15 181 61 201 61 11 0 23
5 26 10 3 6 21 10 40 10 19 0 37 5 40 10 3 6 19 10 35 10 16 0 32 5 35 10 3 6
21 10 40 10 19 0 37 5 40 10 3 6 19 10 34 10 16 0 42 7 57 15 16 8 41 15 56
15 15 0 30 5 33 10 3 6 21 10 40 10 19 0 37 5 40 10 3 6 24 10 45 10 21 0 42
5 45 10 3 6 24 10 45 10 21 0 42 5 45 10 3 6 24 10 45 10 21 0 42 5 45 10 3 6
23 10 43 10 20 1 48 7 62 15 14 8 41 14 61 15 19 0 39 4 45 9 5 5 27 11 49 15
39 5 97 15 205 36 85 16 164 29 229 39 32 5 65 12 71 16 7 4 42 12 79 17 36 5
93 13 126 19 155 26 462 65 595 77 47 4 91 11 99 16 7 5 59 13 115 18 55 5
151 13 211 19 61 5 169 13 240 18 72 5 146 13 165 19 51 15 2341 15 2395 0z
m-620 -47147 c6 -5 109 -12 230 -15 330 -10 777 -40 799 -54 10 -6 92 -13 326
-27 47 -3 94 -10 105 -15 11 -5 54 -12 95 -14 41 -3 113 -10 160 -15 47 -6
121 -15 165 -20 147 -17 250 -33 267 -42 9 -5 43 -9 75 -9 33 0 63 -4 68 -9 6
-5 37 -12 70 -15 57 -5 112 -12 270 -36 39 -6 97 -14 130 -19 33 -4 67 -11 75
-14 8 -4 44 -12 80 -17 36 -6 92 -16 125 -21 33 -6 85 -12 115 -15 30 -3 59
-10 65 -15 5 -5 32 -9 60 -9 28 0 55 -4 60 -9 6 -5 33 -12 60 -14 90 -10 173
-24 187 -33 13 -8 70 -18 173 -30 28 -3 59 -9 70 -14 11 -5 41 -11 68 -14 26
-4 68 -8 95 -12 26 -3 56 -9 67 -14 11 -5 40 -11 65 -14 84 -9 165 -24 193
-35 16 -6 48 -11 72 -11 24 0 47 -4 50 -10 3 -5 30 -10 60 -10 30 0 57 -4 60
-10 3 -5 32 -10 64 -10 31 0 61 -4 66 -9 6 -5 37 -12 70 -15 33 -3 89 -9 125
-15 36 -5 103 -14 149 -20 46 -6 89 -15 95 -19 6 -4 49 -10 96 -15 117 -10
257 -25 305 -31 46 -7 172 -14 400 -24 178 -8 189 -13 138 -68 -15 -16 -60
-72 -100 -124 -123 -163 -146 -192 -214 -274 -14 -17 -36 -47 -49 -66 -13 -19
-31 -42 -40 -50 -8 -8 -28 -33 -45 -55 -16 -22 -32 -42 -35 -45 -4 -3 -25 -28
-46 -56 -49 -64 -155 -195 -169 -210 -5 -6 -23 -28 -40 -49 -16 -21 -35 -43
-40 -49 -6 -6 -21 -24 -34 -41 -12 -16 -37 -46 -54 -65 -18 -19 -44 -51 -58
-70 -15 -19 -40 -49 -55 -65 -16 -17 -47 -53 -69 -80 -22 -28 -58 -70 -81 -95
-23 -25 -53 -58 -66 -75 -12 -16 -32 -39 -43 -51 -11 -11 -38 -42 -60 -67 -22
-26 -59 -69 -83 -95 -24 -26 -71 -78 -105 -117 -133 -153 -718 -744 -888 -896
-199 -179 -290 -259 -347 -304 -14 -11 -46 -38 -72 -61 -26 -22 -64 -54 -86
-70 -21 -16 -41 -31 -44 -34 -3 -3 -34 -28 -70 -55 -35 -28 -71 -55 -80 -62
-95 -76 -526 -373 -539 -373 -6 0 -11 -4 -11 -10 0 -5 -5 -10 -12 -10 -6 0
-26 -11 -44 -25 -18 -14 -37 -25 -43 -25 -6 0 -11 -4 -11 -8 0 -5 -16 -14 -35
-22 -19 -8 -35 -16 -35 -19 0 -4 -15 -12 -32 -20 -18 -8 -46 -24 -63 -36 -16
-12 -45 -28 -62 -36 -18 -8 -33 -17 -33 -21 0 -5 -9 -8 -19 -8 -11 0 -21 -4
-23 -8 -1 -4 -28 -20 -58 -35 -30 -15 -68 -36 -85 -46 -16 -11 -38 -20 -47
-20 -10 -1 -18 -5 -18 -11 0 -5 -6 -10 -13 -10 -6 0 -45 -16 -84 -35 -40 -19
-77 -35 -83 -35 -5 0 -10 -4 -10 -10 0 -5 -7 -10 -15 -10 -8 0 -23 -4 -33 -9
-18 -9 -63 -28 -97 -41 -11 -4 -46 -20 -78 -34 -32 -14 -62 -26 -67 -26 -6 0
-19 -4 -30 -10 -11 -5 -29 -14 -40 -20 -11 -5 -27 -10 -35 -10 -8 0 -23 -4
-33 -9 -9 -5 -53 -20 -97 -34 -85 -27 -137 -45 -170 -58 -22 -8 -61 -17 -113
-26 -18 -3 -35 -9 -38 -14 -3 -5 -17 -9 -31 -9 -15 0 -40 -4 -57 -9 -17 -5
-49 -14 -71 -19 -22 -6 -60 -15 -85 -22 -71 -18 -140 -31 -200 -37 -30 -2 -59
-9 -64 -14 -6 -5 -35 -9 -65 -9 -31 -1 -67 -7 -81 -15 -37 -21 -1385 -22
-1415 -1 -11 7 -49 16 -85 20 -151 15 -175 18 -184 27 -6 5 -27 9 -47 9 -20 0
-53 7 -72 15 -20 8 -50 15 -66 15 -16 0 -32 4 -35 9 -3 5 -24 12 -46 15 -22 3
-58 9 -80 12 -22 3 -43 10 -46 15 -3 5 -21 9 -40 9 -19 0 -34 5 -34 10 0 6
-15 10 -34 10 -19 0 -38 5 -41 10 -3 5 -16 10 -29 10 -12 0 -31 7 -42 15 -10
8 -29 15 -41 15 -12 0 -25 5 -28 10 -3 6 -19 10 -35 10 -16 0 -32 5 -35 10 -3
6 -17 10 -30 10 -13 0 -27 5 -30 10 -3 6 -15 10 -26 10 -10 0 -27 4 -37 9 -9
5 -30 14 -47 21 -74 31 -92 39 -117 49 -50 20 -78 31 -100 40 -13 5 -57 25
-98 45 -42 20 -81 36 -88 36 -6 0 -12 5 -12 10 0 6 -7 10 -15 10 -8 0 -30 9
-50 20 -20 11 -42 20 -50 20 -8 0 -15 5 -15 10 0 6 -5 10 -10 10 -6 0 -28 11
-50 25 -22 14 -46 25 -55 25 -8 0 -15 3 -15 8 0 8 -49 32 -67 32 -7 0 -13 5
-13 10 0 6 -4 10 -10 10 -5 0 -33 15 -62 33 -29 19 -68 40 -85 48 -18 8 -33
17 -33 21 0 5 -4 8 -10 8 -5 0 -48 25 -95 55 -46 30 -89 55 -95 55 -5 0 -10 5
-10 10 0 6 -5 10 -10 10 -10 0 -358 235 -370 250 -3 3 -30 23 -60 45 -30 22
-57 42 -60 45 -3 3 -21 17 -40 30 -19 13 -49 35 -66 49 -16 14 -45 37 -64 51
-18 14 -38 30 -44 35 -11 10 -114 95 -158 130 -29 23 -127 107 -168 145 -16
14 -81 72 -146 130 -134 119 -723 704 -829 823 -39 44 -90 101 -115 127 -25
27 -74 81 -110 121 -36 40 -69 77 -75 83 -5 6 -37 43 -70 81 -33 39 -62 72
-65 75 -3 3 -28 32 -55 65 -28 32 -63 73 -79 90 -15 16 -40 46 -55 65 -14 19
-40 51 -58 70 -17 19 -42 49 -55 65 -12 17 -37 46 -54 65 -33 36 -75 87 -143
176 -22 28 -45 57 -53 65 -7 8 -31 37 -53 64 -21 28 -42 52 -45 55 -3 3 -19
23 -35 45 -17 22 -37 47 -45 55 -9 8 -29 34 -46 56 -16 23 -47 64 -69 91 -22
27 -51 64 -65 83 -28 37 -113 145 -139 175 -9 11 -30 38 -46 60 -17 22 -40 50
-52 63 -13 13 -23 34 -23 47 l0 25 158 0 c87 0 162 4 167 9 6 6 66 12 135 15
210 9 583 52 666 77 17 5 53 9 80 9 28 0 54 4 59 9 6 5 39 12 75 15 61 5 105
12 253 37 34 5 87 12 117 15 30 4 60 10 66 15 7 5 36 12 65 15 30 3 63 9 74
14 19 8 52 13 170 26 28 3 59 9 70 14 11 5 43 12 70 15 28 3 73 8 100 11 28 3
54 10 60 15 5 5 26 9 46 9 21 0 50 5 66 11 15 6 55 15 88 20 33 6 86 14 118
19 125 21 180 30 240 40 34 6 85 13 112 16 28 3 59 9 70 13 25 11 133 31 200
37 28 3 59 9 70 14 11 5 47 12 80 15 151 14 171 16 190 25 11 5 45 11 75 14
83 8 194 23 300 41 103 18 214 32 325 40 39 4 79 10 90 15 19 9 51 12 280 26
50 3 94 10 100 15 5 5 54 9 110 9 56 0 105 4 111 10 14 14 456 45 826 58 113
4 210 10 214 15 11 10 1138 9 1149 -2z"/>
<path d="M20835 44010 c-3 -5 -19 -10 -36 -10 -28 0 -29 -2 -29 -43 0 -38 -4
-44 -32 -60 -18 -10 -49 -39 -69 -65 -20 -26 -62 -62 -93 -81 -49 -29 -67 -34
-156 -41 -81 -6 -106 -12 -123 -28 -15 -15 -39 -22 -77 -24 l-55 -3 0 -785 0
-785 55 -3 c54 -3 56 -4 78 -45 28 -53 48 -66 130 -81 60 -11 67 -15 74 -41 5
-17 7 -86 4 -155 -7 -151 0 -186 50 -243 22 -24 70 -79 108 -121 68 -75 70
-80 82 -154 7 -42 13 -108 13 -145 1 -130 48 -190 170 -222 42 -10 45 -14 63
-65 10 -30 19 -86 20 -124 1 -59 6 -76 30 -112 37 -55 102 -111 139 -119 24
-5 31 -15 46 -61 12 -39 33 -73 76 -119 56 -61 62 -65 103 -65 50 0 66 -17
114 -124 24 -55 36 -69 64 -81 20 -8 44 -15 55 -15 28 0 88 -72 101 -121 13
-49 84 -121 253 -259 20 -16 31 -25 98 -82 61 -51 236 -189 279 -218 19 -14
44 -33 55 -43 11 -10 32 -26 48 -35 15 -9 27 -20 27 -24 0 -4 7 -8 15 -8 8 0
15 -4 15 -10 0 -5 7 -10 15 -10 8 0 15 -4 15 -10 0 -5 5 -10 11 -10 6 0 17 -7
26 -16 23 -23 161 -114 173 -114 5 0 10 -4 10 -8 0 -4 15 -16 33 -27 17 -10
34 -21 37 -24 8 -10 64 -42 83 -48 9 -3 17 -9 17 -14 0 -5 4 -9 10 -9 5 0 32
-16 59 -35 26 -19 53 -35 60 -35 6 0 11 -4 11 -8 0 -5 16 -14 35 -22 19 -8 35
-17 35 -22 0 -4 5 -8 12 -8 6 0 19 -6 27 -14 9 -7 41 -27 71 -43 100 -55 155
-86 180 -102 14 -9 48 -28 75 -41 28 -14 52 -28 53 -32 2 -5 11 -8 21 -8 9 0
21 -4 27 -10 15 -15 406 -210 421 -210 7 0 13 -4 13 -10 0 -5 6 -10 13 -10 6
0 55 -21 107 -46 52 -26 104 -50 115 -54 11 -4 40 -17 65 -28 130 -59 209 -92
283 -121 12 -4 36 -14 52 -21 44 -19 86 -36 120 -50 17 -7 38 -16 47 -21 10
-5 25 -9 33 -9 15 0 25 -4 72 -28 13 -7 30 -12 38 -12 8 0 23 -4 33 -9 9 -5
35 -17 57 -26 22 -10 48 -22 57 -26 10 -5 27 -9 37 -9 11 0 23 -4 26 -10 3 -5
17 -10 30 -10 13 0 27 -4 30 -10 3 -5 15 -10 26 -10 10 0 28 -4 39 -10 11 -5
29 -14 40 -20 11 -5 28 -10 38 -10 10 0 27 -7 38 -15 10 -8 29 -15 41 -15 12
0 25 -4 28 -10 3 -5 17 -10 30 -10 13 0 27 -4 30 -10 3 -5 17 -10 30 -10 13 0
27 -4 30 -10 3 -5 17 -10 31 -10 13 0 32 -4 42 -9 58 -31 158 -51 250 -51 125
0 197 -23 279 -89 56 -45 74 -53 161 -68 18 -3 35 -9 38 -14 3 -5 20 -9 38 -9
17 0 38 -6 44 -12 10 -10 191 -15 795 -20 1059 -10 1374 -20 1497 -47 55 -13
164 -25 258 -31 154 -9 167 -11 250 -46 207 -86 267 -93 832 -94 359 0 366 -1
405 -23 21 -12 54 -42 72 -67 70 -94 78 -101 118 -111 22 -5 138 -12 258 -16
144 -4 220 -10 227 -18 5 -6 21 -58 35 -116 14 -57 29 -117 33 -134 l8 -30
337 -3 c320 -2 337 -1 337 16 0 10 7 27 15 38 8 10 15 34 15 52 0 17 5 32 10
32 6 0 10 15 10 34 0 19 5 38 10 41 6 3 10 24 10 45 0 21 4 41 9 44 5 3 11 23
14 43 13 88 42 218 56 256 6 16 11 48 11 72 0 24 5 47 10 50 6 3 10 32 10 64
0 31 4 61 9 67 5 5 12 41 15 79 3 39 10 108 15 155 43 394 43 828 1 1230 -5
47 -12 118 -16 158 -3 39 -10 72 -15 72 -5 0 -9 29 -9 65 0 37 -4 65 -10 65
-5 0 -10 24 -10 54 0 31 -5 56 -11 58 -6 2 -13 25 -16 51 -3 26 -10 50 -14 53
-5 3 -9 23 -9 44 0 21 -4 42 -10 45 -5 3 -10 21 -10 40 0 19 -4 37 -10 40 -5
3 -10 17 -10 30 0 13 -4 34 -9 47 -5 13 -14 43 -21 68 -13 49 -37 115 -51 142
-5 10 -9 27 -9 37 0 11 -4 23 -10 26 -5 3 -10 15 -10 26 0 10 -4 28 -10 39 -5
11 -14 29 -20 40 -5 11 -10 29 -10 39 0 11 -4 23 -10 26 -5 3 -10 13 -10 21 0
9 -7 22 -15 30 -8 9 -15 26 -15 40 0 13 -4 24 -10 24 -5 0 -10 9 -10 20 0 11
-4 20 -10 20 -5 0 -10 11 -10 25 0 14 -4 25 -10 25 -5 0 -10 9 -10 20 0 11 -4
20 -10 20 -5 0 -10 7 -10 16 0 18 -90 197 -102 202 -4 2 -8 12 -8 23 0 10 -4
19 -10 19 -5 0 -10 9 -10 20 0 11 -4 20 -10 20 -5 0 -10 6 -10 13 0 7 -16 36
-35 66 -19 29 -35 55 -35 57 0 3 -18 32 -40 64 -22 32 -40 62 -40 65 0 8 -53
79 -62 83 -5 2 -8 8 -8 14 0 6 -15 31 -32 55 -67 90 -142 188 -148 193 -3 3
-18 23 -35 45 -16 22 -39 49 -50 61 -11 11 -36 41 -55 67 -61 81 -466 475
-595 580 -11 8 -47 38 -80 64 -33 27 -76 60 -95 73 -19 14 -41 30 -49 38 -7 7
-41 31 -75 54 -33 23 -62 45 -64 50 -2 4 -7 8 -12 8 -4 0 -51 29 -103 65 -52
36 -100 65 -105 65 -6 0 -12 3 -14 8 -4 10 -116 82 -128 82 -5 0 -10 5 -10 10
0 6 -4 10 -10 10 -5 0 -34 15 -63 34 -81 52 -140 86 -159 93 -10 3 -18 9 -18
14 0 5 -5 9 -10 9 -6 0 -34 15 -63 33 -29 18 -65 39 -82 47 -16 8 -32 17 -35
20 -6 6 -69 41 -120 66 -19 10 -37 20 -40 23 -3 4 -25 17 -50 30 -35 19 -66
26 -145 30 -126 8 -162 26 -236 116 -30 37 -66 72 -80 78 -13 5 -90 13 -170
17 -182 9 -228 27 -309 118 -81 92 -88 94 -400 99 -327 6 -338 8 -430 103 -37
37 -81 75 -99 84 -35 19 -219 35 -397 36 -139 0 -210 24 -424 145 -25 14 -64
30 -87 36 -42 11 -42 11 -45 63 l-3 51 -2722 3 c-1810 1 -2724 -1 -2728 -8z"/>
<path d="M49014 44005 c-4 -8 -4 -32 -2 -54 3 -36 1 -40 -30 -51 -18 -6 -58
-34 -90 -62 -31 -27 -84 -64 -117 -81 l-60 -31 -305 -7 c-477 -11 -500 -16
-579 -109 -24 -28 -66 -63 -94 -77 -51 -27 -56 -28 -297 -34 -135 -3 -264 -11
-287 -18 -32 -9 -53 -25 -90 -69 -61 -72 -68 -78 -128 -107 -43 -21 -64 -25
-150 -25 -99 0 -101 0 -195 -47 -52 -27 -96 -51 -98 -55 -2 -5 -9 -8 -16 -8
-7 0 -46 -18 -87 -40 -41 -22 -82 -43 -91 -46 -10 -4 -18 -10 -18 -15 0 -5 -9
-9 -19 -9 -11 0 -21 -3 -23 -8 -1 -4 -34 -23 -73 -42 -38 -19 -83 -44 -100
-55 -16 -12 -43 -28 -60 -35 -16 -8 -32 -17 -35 -20 -3 -3 -31 -18 -62 -35
-32 -16 -58 -32 -58 -35 0 -4 -16 -12 -35 -20 -19 -8 -35 -17 -35 -21 0 -4 -8
-9 -17 -12 -23 -8 -104 -55 -124 -73 -8 -8 -20 -14 -26 -14 -6 0 -13 -3 -15
-7 -4 -10 -57 -42 -80 -50 -10 -3 -18 -9 -18 -14 0 -5 -5 -9 -11 -9 -6 0 -39
-20 -73 -45 -35 -25 -67 -45 -71 -45 -10 0 -169 -112 -173 -122 -2 -4 -9 -8
-16 -8 -7 0 -21 -8 -32 -18 -10 -9 -44 -35 -74 -57 -30 -22 -62 -45 -70 -52
-8 -7 -58 -47 -110 -89 -215 -174 -423 -369 -566 -534 -21 -25 -44 -49 -51
-55 -19 -17 -172 -203 -211 -258 -20 -29 -61 -83 -89 -122 -29 -38 -53 -76
-53 -82 0 -7 -4 -13 -8 -13 -5 0 -17 -16 -28 -35 -10 -19 -21 -35 -25 -35 -4
0 -12 -13 -19 -30 -7 -16 -16 -30 -20 -30 -4 0 -10 -8 -13 -17 -4 -10 -17 -36
-31 -58 -29 -46 -44 -73 -77 -135 -13 -25 -26 -47 -29 -50 -12 -11 -120 -232
-120 -245 0 -8 -4 -15 -10 -15 -5 0 -10 -9 -10 -19 0 -11 -4 -23 -10 -26 -5
-3 -10 -15 -10 -26 0 -10 -4 -19 -10 -19 -5 0 -10 -7 -10 -16 0 -9 -6 -28 -14
-42 -27 -50 -56 -122 -56 -136 0 -8 -4 -18 -10 -21 -5 -3 -10 -16 -10 -29 0
-12 -4 -26 -8 -31 -5 -6 -14 -30 -21 -55 -7 -25 -17 -53 -22 -62 -5 -10 -9
-26 -9 -35 0 -10 -7 -27 -15 -37 -8 -11 -15 -32 -15 -48 0 -15 -4 -28 -10 -28
-5 0 -10 -15 -10 -34 0 -19 -4 -38 -10 -41 -5 -3 -10 -22 -10 -41 0 -19 -4
-34 -10 -34 -5 0 -10 -18 -10 -39 0 -22 -4 -42 -9 -45 -5 -3 -11 -23 -14 -43
-15 -96 -23 -139 -32 -153 -5 -8 -13 -42 -18 -75 -5 -33 -13 -85 -18 -115 -5
-30 -12 -89 -15 -130 -3 -41 -9 -84 -14 -95 -16 -39 -24 -244 -24 -625 0 -391
10 -620 25 -620 5 0 9 -37 9 -83 0 -46 4 -87 9 -92 5 -6 12 -37 15 -70 14
-147 19 -180 27 -186 5 -3 13 -34 19 -70 16 -93 37 -198 60 -289 7 -25 14 -62
17 -83 3 -20 9 -40 14 -43 5 -3 9 -17 9 -32 1 -15 7 -38 15 -52 8 -14 14 -37
15 -51 0 -15 7 -30 16 -33 9 -3 137 -6 285 -6 l269 0 0 53 c0 44 4 58 25 77
14 13 37 43 51 67 14 24 44 57 66 73 37 27 48 30 122 30 139 1 321 17 358 33
20 8 56 36 80 62 52 56 96 86 162 108 42 14 96 17 335 17 334 0 619 14 682 33
25 8 76 33 114 56 99 59 147 71 335 81 91 5 188 12 215 15 198 22 429 28 1336
34 729 4 1020 9 1030 17 13 11 35 17 117 31 18 3 35 9 38 14 3 5 18 9 34 9 16
0 32 5 35 10 3 6 19 10 34 10 15 0 36 7 47 15 10 8 31 15 46 15 15 0 30 5 33
10 3 6 19 10 35 10 16 0 32 5 35 10 3 6 17 10 31 10 13 0 32 4 42 9 9 5 37 15
62 21 65 18 132 40 152 51 10 5 27 9 37 9 11 0 23 5 26 10 3 6 19 10 35 10 16
0 32 5 35 10 3 6 17 10 30 10 13 0 27 5 30 10 3 6 17 10 30 10 13 0 27 5 30
10 3 6 15 10 25 10 17 0 66 18 112 41 10 5 27 9 37 9 11 0 23 5 26 10 3 6 16
10 29 10 12 0 26 4 32 8 5 4 27 14 49 21 22 7 49 16 60 20 11 5 40 16 65 26
74 28 94 37 112 46 10 5 25 9 33 9 8 0 24 5 35 10 11 6 29 15 40 20 11 6 25
10 30 10 6 0 37 12 68 26 57 26 83 37 125 53 12 4 34 13 50 20 15 6 37 15 50
20 12 4 47 20 77 35 30 14 61 26 68 26 6 0 12 5 12 10 0 6 7 10 15 10 8 0 23
4 33 9 9 5 28 13 42 18 31 12 177 81 331 156 63 32 120 57 126 57 6 0 13 3 15
8 2 4 44 28 93 53 169 86 307 159 334 178 14 10 41 24 59 32 17 8 32 17 32 21
0 5 4 8 9 8 8 0 61 29 136 76 22 14 48 27 58 31 9 3 17 9 17 14 0 5 5 9 10 9
12 0 94 52 98 63 2 4 8 7 14 7 5 0 29 14 53 30 24 17 46 30 49 30 10 0 301
202 304 211 2 5 10 9 18 9 8 0 14 3 14 8 0 4 27 25 60 47 33 22 60 43 60 47 0
5 6 8 14 8 8 0 16 4 18 8 2 5 23 22 48 39 25 17 57 43 72 57 15 14 30 26 33
26 4 0 12 6 19 13 7 6 28 24 47 39 19 14 45 36 59 48 14 12 43 36 64 53 46 37
124 105 146 127 8 8 51 47 95 85 108 95 355 341 388 387 15 20 35 39 44 43 10
3 38 31 63 61 25 31 59 70 76 87 16 18 52 59 80 92 27 33 65 77 84 98 19 21
39 46 44 55 6 9 20 28 33 42 13 14 23 32 23 40 1 8 13 53 29 100 23 69 32 85
52 91 42 11 83 36 115 71 53 57 64 80 64 134 0 51 11 125 30 194 8 31 16 39
41 44 19 4 54 29 94 69 89 89 98 122 99 347 1 194 7 220 54 220 15 0 48 10 72
23 37 18 51 33 75 82 l30 60 55 0 55 0 0 760 0 760 -54 3 c-40 2 -62 10 -84
28 -15 13 -32 24 -35 24 -261 12 -319 30 -428 132 -38 36 -77 67 -86 71 -13 5
-18 18 -18 50 0 40 -3 44 -33 55 -26 9 -661 12 -2751 12 -2402 0 -2717 -2
-2722 -15z"/>
<path d="M44095 35019 c12 -13 27 -36 35 -51 7 -16 17 -28 22 -28 4 0 8 -6 8
-12 0 -7 11 -26 24 -41 14 -16 27 -34 29 -40 6 -20 37 13 37 39 0 12 5 26 10
29 6 3 10 15 10 25 0 10 6 20 13 23 21 8 2 17 -84 41 -46 13 -93 27 -104 31
-20 8 -20 8 0 -16z"/>
</g>
</svg>
